<svg xmlns="http://www.w3.org/2000/svg" viewBox="0 0 828.06 900"><defs><style>.cls-1{fill:#4a4a4a;}.cls-2{fill:#e4e4e4;opacity:0.35;}.cls-3{fill:#694ac4;}</style></defs><title>template jumbotron</title><g id="circle"><path class="cls-1" d="M1356.91,751.5l-1.75.45c0,.07,11.57.59,13.06.87,5.07.95,9.87,3,14.63,4.95,10.08,4.09,19.42,10,29.56,13.9,3.33,1.28,8.68,3.86,12.08,1.18s-1-10-3.27-12.16c-3.64-3.34-8.79-5-13.36-6.68a111.59,111.59,0,0,0-15.13-4.67,66,66,0,0,0-17.2-1.62c-6.42.4-12.43,2.17-18.62,3.78m-16,9.29c-2.52-2.81-1.31,1.61-3.65,1.13-2.57-.52,2.25-5.61,3.21-6.48,5.63-5.13,14.08-7.9,21.3-9.85,3.64-1,7.25-2.19,11-3s7.46-.53,11.13-.37a78.51,78.51,0,0,1,21.67,4.14c7,2.35,14.19,5.23,20,9.91,4.78,3.87,6.73,12.6,2.43,17.43s-11.9,4.47-17.54,2.42a185.32,185.32,0,0,1-21.82-9.4c-3.57-1.85-7.4-3-11-4.75a44.45,44.45,0,0,0-11.79-4c-4.1-.7-8.23-1.46-12.4-1.22-4.58.27-8.34,2.09-12.44,4" transform="translate(-701)"/><path class="cls-1" d="M1326.39,676.49c-5.62-7.57-13.08-13.41-23.5-10.22-9.48,2.89-15,12.52-15.9,21.6-.94,9.83,2.78,19.87,11.34,25.28,9,5.69,20.42,2.67,26.42-6.1,6.69-9.77,5.15-20.27,1.64-30.56m6.76,3.41a31.92,31.92,0,0,1-8.45,31.31c-8.66,8.2-21.42,10.22-31.28,3.64-19.92-13.29-12.41-46.81,11.44-52.38a23.58,23.58,0,0,1,17.08,2.72c5.81,3.19,8.6,9,11.21,14.71" transform="translate(-701)"/><path class="cls-1" d="M1352.06,721.53c7-3.64,14.65-6,21.54-9.87-13.25-5.82-24.49,5.24-31.34,15.26Zm2.38,4.07a101.36,101.36,0,0,1-10.53,4.76c-3.82,1.33-4.92,3.91-6.58,7.39-2.8-1-.32-7.44.45-9.25,1.59-3.74,4.36-7.26,6.88-10.41,5.37-6.72,11.73-12.57,20.68-13.31,3.32-.27,7.77-.79,10.69,1.2,3.21,2.17,1.71,5.66-.35,8.13-5,6-14.65,7.64-21.24,11.49Z" transform="translate(-701)"/><path class="cls-1" d="M1354.44,725.6l2.35-1.38-2.35,1.38" transform="translate(-701)"/><path class="cls-1" d="M1356.91,751.5c0,.76-1.61,1.1-1.75.45l1.75-.45" transform="translate(-701)"/><path class="cls-1" d="M1352.06,721.53l3.69-1.91-3.69,1.91" transform="translate(-701)"/><path class="cls-1" d="M894.12,223.81c3.72,3.33,7.6,6.5,11.3,9.84,3.5,3.17,6.67,5.92,11.15,7.65q-4-8.3-8.14-16.46c-1.39-2.71-2.73-5.44-4.17-8.12-1.1-2.07-2.19-3.77-.94-6.09,1.46-2.7,3-.31,3.68,1.5.89,2.49,2.21,4.88,3.28,7.32,2.4,5.44,4.93,10.81,7.49,16.17.8,1.67,6.23,10.59,1.22,10.15-2.15-.18-5.12-2.26-7.2-3a27,27,0,0,1-7.13-4.25c-4.69-3.51-9-7.64-13.65-11.29l-7.1-5.61c-1.38-1.09-1.81-1.61-.68-3.25a9.35,9.35,0,0,1,3.38-2.51c3.12-1.74,6.28-3.39,9.43-5.06,1.2-.63,5.89-4.08,7.15-3.64,2.86,1-4.46,4.88-5.32,5.39-3.25,1.93-6.57,3.75-9.62,6,1.94,1.78,3.88,3.55,5.87,5.26" transform="translate(-701)"/><path class="cls-1" d="M919.66,295.81c-1.17,2.39-2.68,1.55-4.66.66-2.55-1.16-5.13-2.25-7.63-3.52-5.27-2.67-10.46-5.47-15.89-7.83-10.35-4.48-20.66-9.2-31.15-13.34-2.61-1-5.21-2.07-7.8-3.15s-6.23-1.95-8.64-3.55c-2.1-1.4-1-2.76,1.18-2.77,2.79,0,5.88,1.1,8.53,1.87A190.53,190.53,0,0,1,885.27,277c11.69,5.87,23.27,11.9,34.39,18.81" transform="translate(-701)"/><path class="cls-1" d="M854.92,248.24c1.1-2.29,10.06,3.34,11.91,4.21,4.54,2.12,8.73,5,13,7.55s8.55,4.92,12.9,7.22c1.35.71,12,5,11.8,5.86-.59,2.95-20.77-7.93-22.75-9-9.18-4.88-18-10.54-26.9-15.86" transform="translate(-701)"/><path class="cls-1" d="M1247.43,184c2.33-1.95,5.75-2.47,8.68-3.29,3.72-1,7.5-1.83,11.26-2.74a138.34,138.34,0,0,1,21.44-3.32,89.55,89.55,0,0,1,42.51,7.06c6.55,2.9,14.29,6.21,19.38,11.27,1.76,1.76,1.81,2.43.47,4.51-.6.95-2.14,3.33-3.12,3.85-2.54,1.34-7.22-.46-9.62-1.31-7.07-2.52-13.75-5.92-20.73-8.64a134.66,134.66,0,0,0-21.78-5.91c-16.1-3.26-32.08-2.91-48.49-1.48m101,3.11c-16.88-10.63-35.43-17.73-56-17.69a127.27,127.27,0,0,0-29,3.71c-9.88,2.32-19.58,5-28.87,9.09-2.47,1.09-5,2.18-7.39,3.33-1.36.64-5.38,1.79-6.05,3.2-.53,1.14,0,1.95.85,2.84,1.9,2,4.12,1.41,6.67,1.06,10.23-1.4,20.49-2.81,30.78-3.57a138.16,138.16,0,0,1,59.59,8.56c5.78,2.22,11.5,4.63,17.33,6.71,3.56,1.27,9.62,3.86,13.44,2,2-1,2.8-3.4,4.61-4.72s3.41-1.6,3-4c-.65-4.28-5.58-8.2-8.91-10.48" transform="translate(-701)"/><path class="cls-1" d="M796.39,480c-3.51,4.53-9,11.29-14.92,6.38-2.93-2.43-3.83-5.76-5.34-9.07a31.54,31.54,0,0,0-6.26-9.4c-11-11.08-26.74-15.81-41.46-20.47A75.26,75.26,0,0,1,771,450.29a60.33,60.33,0,0,1,18.82,11.57,26.1,26.1,0,0,1,5.6,8.25,16.66,16.66,0,0,1,1.84,4.91c.2,1.71-.55,3.3-.89,5m-78-34.32c2.43,6.49,13.12,7.32,19,9.38a125.86,125.86,0,0,1,20.51,8.9c6.71,3.83,10.6,8.44,13.69,15.31,2.76,6.13,7.93,12.47,15.26,13.56,3,.44,4.54-1,7-2.35,3-1.64,5.19-1,7.32-4.16,3.82-5.62.76-11.89-1.93-17.12-6.29-12.18-20.21-20.77-33.43-24.53-7.61-2.17-15.7-4.19-23.72-4.14a65.77,65.77,0,0,0-11.68,1.36c-4.18.81-8.61,1-11.94,3.79" transform="translate(-701)"/><path class="cls-1" d="M1027.4,226.77c2.75-4,5.47-7.89,8.29-11.83l14,13.81-6.83,5.35c-1.08.85-2.43,2.37-3.68,2.89l-1.07.83-2-1.51c-2-1.5-4.06-3-6.12-4.4a14.89,14.89,0,0,1-3-2.07c-1.12-.28-1.29-.78-.51-1.48.31-.53.63-1.06,1-1.59m-5.87-.27c-.92,4.06,4.26,6.7,7.14,8.89,1.83,1.39,3.75,2.64,5.62,4,1.28.92,2.61,2.39,4.17,2.88,2.78.89,5.76-2.88,7.17-4.91a35.09,35.09,0,0,1,3.36-4,13.52,13.52,0,0,1,1.94-2.13,17.93,17.93,0,0,1,2.3-.71c2-2.65-4.2-7.43-5.65-8.8q-5.34-5.07-10.79-10c-1-.88-1.82-2.15-3.2-1.63s-2.61,3.2-3.37,4.19c-3.07,4-5.62,8.35-8.69,12.28" transform="translate(-701)"/><path class="cls-2" d="M701,426c0,225.11,150.87,415,357,474h271.93A490.07,490.07,0,0,0,1442,852.16V0H945.72C799.35,85.49,701,244.26,701,426Z" transform="translate(-701)"/></g><g id="Layer_3" data-name="Layer 3"><path class="cls-3" d="M971,825.83c2,2.39,4.87,4.16,7.1,6.34s4.87,4.29,7.2,6.55c10.28-13.17,24.35-21.25,36.55-32.18,5.78-5.18,10-12.2,13.15-19.42a66.7,66.7,0,0,0,3.7-11.44c.42-1.77.83-3.54,1.1-5.34a5.8,5.8,0,0,1,1.82-4.06c.6-.73,1.77-2.87,3-2.64,1,.2,2.81,3.38,3.44,4.16,3,3.77,6,7.66,9.13,11.28,4.87,5.55,9.3,11,13.82,16.88,9.24,12,19.21,23.35,29.27,34.66.75.84,2.49,3.3,3.56,3.63,1.31.41,3.42-1.27,4.74-2.21a62.16,62.16,0,0,0,8.37-7.86c5.29-5.48,8.87-13.16,11.28-20.47,1.44-4.37,2.37-8.91,3.86-13.26.62-1.82,2-4.05,1.31-5.64a5.55,5.55,0,0,0-2-1.82c-.56-.11-1.5.7-1.7.64-1.87-.53-.83-2.59-1.94-3.69-.63-.63-3.84-.54-4.8-.88-3.5-1.26-6.65-3.67-10-5.1C1099,768,1085,762.11,1073,752.3c-3.11-2.54-5.17-4.46-8.87-6.1s-7.51-3.14-11.33-4.59a103.19,103.19,0,0,0-10.24-3.4c-3.76-1-9.1-2.25-12.86-1-7.39,2.51-9.77,8.89-12.71,15.62A203.82,203.82,0,0,1,1003,779c-10,16.13-22.24,30.6-32,46.86" transform="translate(-701)"/><path class="cls-1" d="M1193.39,683.24c.4-.22,3.58,1.14,4.11,1.34a52.16,52.16,0,0,1,6.14,3.33l-4.61,5.88a60.35,60.35,0,0,0-5.64-10.55Zm-1.05,24.09c.52.07-3.89,11.18-4.4,12.43-1.88,4.54-3.85,9-5.75,13.57a113.54,113.54,0,0,1-6.52,12.53c-2,3.5-4.09,8.95-7.12,11.54,1.92-8.91,1.66-19.16,7.16-26.65,5.7-7.76,11.33-15.34,16.63-23.42ZM971,826.23c8.52-14.14,19.18-26.65,28-40.53a276.94,276.94,0,0,0,14-23.93c3-6,4.93-14.61,9.63-19.21,2.08-2,4.29-4,7.07-4.92,3.8-1.25,9,0,12.86,1a135.2,135.2,0,0,1,20.83,7.66c6.84,3,12.68,8.47,18.86,12.84a102.34,102.34,0,0,0,21.24,11.1c6.47,2.6,12.22,6.34,18.66,9,1.28.52,3.9.45,5,1.13s.71,2.9,2.11,3.7c.64.36.85-1,1.34-.93s1.14.76,1.71,1.22c2.34,1.9.91,3.16,0,5.76-3,8.49-4.64,17.12-8.88,25.13A50.65,50.65,0,0,1,1109.06,832c-.89.66-3.81,3.23-4.85,3.06s-2.87-2.78-3.52-3.5c-3-3.24-5.66-6.73-8.61-10-4.57-5-9-10.17-13.4-15.26-5.14-5.9-9.69-12.59-14.33-18.91-2.13-2.9-4.87-5.26-7.24-7.95-3.18-3.62-6.11-7.51-9.13-11.28-.92-1.15-2.45-4.06-3.87-4-1,0-2.75,2.48-3.27,3.25-1.93,2.87-1.93,8-2.89,11.61a61.57,61.57,0,0,1-12.39,24c-5.78,6.68-13.17,11.44-20,16.82-7.4,5.82-14.41,11.78-20.28,19.3-2.33-2.26-4.86-4.26-7.2-6.55s-5.13-3.95-7.1-6.33Zm109.6,40c-1.66,0-4.46,1.08-5.94.44,4.39-5.09,8.42-9.47,14-13.2,5.77-3.88,11.51-7.72,17.11-11.85,11.29-8.33,19.59-18.22,24.31-32.09,1.21-3.57,2-7.32,2.92-11,.47-2,1.43-11.23,3-12,1-.48,8.17,4.84,9.31,5.5a81.11,81.11,0,0,0,8.12,4,124.88,124.88,0,0,0,18.36,6.26c7.55,2,12.69-1.31,17.37-7.53,5.31-7.06,9.72-15,14.57-22.44a71.23,71.23,0,0,0,5.66-10.46c1.07-2.44,5.3-9,3.84-11.6-4.17,3.33-5.67,9.95-8.51,14.41-3.54,5.55-7.53,10.79-11.09,16.34-3,4.67-6.05,10.33-10.47,13.68-3.89,3-7.58,2.05-11.77.72-5.07-1.61-10.33-2.4-15.3-4.39-5.38-2.16-10.46-5.22-15.71-7.72-2.45-1.16-5.38-1.82-7.69-3.27-2-1.25-1.69-1.91-1.83-4.57-.17-3.11-.37-6.21-.5-9.32-.09-2.09,1-4.92.26-6.48,6,1.09,11.78,2.54,17.7,3.82,3.24.7,6.36,1.57,9.63,2.13,1.25.21,3,.2,4.07.77.89-.27,1.35-.1,1.37.51a6.55,6.55,0,0,0,.2,1c1.83.87,2.89-1,4.47-2.79a39.7,39.7,0,0,0,4.86-7.31c3.2-5.81,6.9-11.28,9.87-17.26s5.48-12.62,8-18.94c2.35-5.8,3.86-12.07,6.46-17.74a31.65,31.65,0,0,1,4.35-6.75c1.41-1.76,3.59-5.56,5.71-6.37.56-.22,2,.14,2.66.09a23,23,0,0,1,3.69-.47c2.81.23,5.87,2.09,8.12,3.73-1.45,1.35-5.08,3-2.48,5.44s3.93-1.88,4.89-3.74c4.55,3.91,3.89,9.3,4.41,14.83.28,2.89,1,5.73,1.46,8.57a54.09,54.09,0,0,1,.2,6.25c.24,5.31.75,10.39.73,15.62,0,5.59-.39,11-.82,16.55-.72,9.35-2.36,18.7-3.77,28-.8,5.22-1.89,10.28-2.94,15.41-1.2,5.82-3.41,11.34-4.66,17.14-1.26-1.69-2.21-1.69-4.26-1.47-1.58.17-2.63-.22-2.54,2.07a3.21,3.21,0,0,0,2.69,2.88c1.81.34,2.42-.6,3.35-2,.22,2.72-1.52,5.55-2.21,8.21a42.64,42.64,0,0,1-2.18,7.37c-1.07,2.35-2,4.66-3.06,7-.5,1.06-1,2.15-1.47,3.22a8.21,8.21,0,0,1-.93,1.73c-.89,1.07-.75.55-1.8,1.16-2.27,1.33-1.41,1-1.47,3.73a7.51,7.51,0,0,1-3.48,6.19c-4.49,3.22-8.91,4.11-14,5.74-4.75,1.51-9.76,2.81-14.79,2.78-6.16,0-12.24-.88-18.4-1-6.8-.09-13.67,0-20.45.19a33.86,33.86,0,0,0-8.09,1c-3.13.87-6.16.53-9.39.39-6.89-.28-14-.84-20.82-.89-4.89,0-10.06-.39-15-.08ZM901.91,869c-1.22.68-4,.4-5.2.21-2.17-.33-2.4-1.23-3.78-3.26a44.91,44.91,0,0,1-5.68-10.88c-2.67-7.75-3.76-15.67-4.93-23.77-1.3-9,1.07-18.33,1.93-27.27.19-2,.46-4.09.77-6.12.18-1.22.23-5.36,1-6.41,1.47-2,8.29-.39,11-.21,7.48.51,15,.63,22.5.72,4,.05,8,.22,12,.26a49.12,49.12,0,0,0,5.41-.27c.61-.06,1.2-.21,1.81-.24,2.11-.12,2-.44,2.49,1.51,1,3.42.22,7.76.47,11.31.33,4.74.51,9.55.43,14.3-.07,4.39.07,8.77-.09,13.17a21.28,21.28,0,0,1-.71,5c-.52,2-1.09,6.57-2.38,7.93-.15.15-1.24-.21-1.53.18-.45.59-.37,1.85-.68,2.23-1,1.25-3.06,1.35-4.55,1.91a94,94,0,0,0-11.73,5.26c-3.45,1.85-9,3.42-11.1,7.07-.95,1.67-1.08,3.87-1.95,5.6-1,2,1,.93-1.45,1.73-1.1.36-2.85,0-4,0ZM1266,846.82c.31,4.53,2.74,8.85,3.59,13.31.4,2.09,1.07,4.14,1.54,6.22s2.06,4.35,1.9,6.32c-6-2.23-12-2.79-18.24-3.39-5.91-.57-12.15-.8-18-.8s-12.35-.62-18.5-.71c-6.43-.1-13-.27-19.29-1,3.31-2.58,7.46-5,9.9-8.57,2.66-3.9,4-8.77,6.38-12.88,4.7-8.24,7.68-18.47,10.15-27.72,5-18.7,10.52-37,11.86-56.43,2.54,1.37,4.57,6.68,5.84,9.32,1.63,3.37,2.48,7,3.54,10.62,2.18,7.38,3.69,15,6.36,22.36,5.1,14,8.37,29.06,13,43.32ZM942.22,737.88c-1.1,8.36-3.41,16.83-3.5,25.29a31.63,31.63,0,0,1-.09,5.76c-.4,2-1.68,3.69-2.42,5.56-1.18,3-4.16,9-1.29,11.52.06-2.38,2.14-5.4,3.18-7.48,1.58-3.13,3.64-6,5.35-9a126,126,0,0,1,12.18-18.28c4.49-5.49,9.66-10.36,14.41-15.59,1.43-1.57,12.9-16.68,13.35-16.47a117.14,117.14,0,0,1-17.87,38.93c-4.06,5.9-8.92,9.79-13.86,14.79-4.11,4.16-11.86,8.61-10.44,15.44-6.43-.65-12.81-1.69-19.3-1.69,1.07-8.6,1.89-17.08,3.79-25.54,2.16-9.62,3.63-19.52,5.46-29.22,1.86-9.9,5-19.49,7-29.37,1.88-9.46,3.5-18.91,4.89-28.48,1.14,5.3.72,11.13,1.12,16.54a162.24,162.24,0,0,1,.24,16.51c-.26,10.33-1.3,20.53-2.2,30.83Zm-27.85-49.23c0-4.42-.85-8.78-1.1-13.19-.08-1.36-1.36-10.59-.17-11.07,1,2.25,1.22,5.14,2.11,7.5s2.09,4.61,2.95,7a55.14,55.14,0,0,1,2.7,16.46,368.07,368.07,0,0,1-.1,37.14c-.34,5.31-.61,10.63-.51,15.95.1,5.86,1,10.94-.08,16.75a145.63,145.63,0,0,0-2,17.31c-.24,4.09-.34,3.8-4.06,3.52-2.69-.21-5.41,0-8.1-.12,1.26-16,1.46-31.95,3.48-47.85,1-8.11,1-16.34,2.33-24.42.63-4,1.69-8,2.3-12,.66-4.31.34-8.66.27-13Zm272.43-10c-7.17.65-14.8,2.9-22.15,1.42,1.21-.52,4.38-1.23,3-3.26s-3.9.56-5.35.29c-.89-.17-2.86-4.08-3.41-4.89-1.25-1.84-1.4-2.16-3.65-2.64s-2.66,0-2.94-2.23c-.32-2.6.55-5.53.46-8.2-.18-5.74-2-10.77-3.59-16.17,7,1.59,13.81,3.48,20.95,4.5,3.05.44,7.8,1.46,10.57-.72.72-.57.6-1.33,1.19-2a9.41,9.41,0,0,1,4.23-2.55c8.64-1.93,9.48,11,5.15,15.82-1.08,1.21-2.59,1.8-3.7,2.91-1.48,1.48-1.6,3-1.82,5.3a24.65,24.65,0,0,0,1.87,12.36ZM1082,739.55c-2.55.51-5.21.39-7.77.83-.91.15-3.63.69-4.43.13-1.22-.85-1.65-4-2.23-5.42-1-2.55-2.45-4.78-3.41-7.38-4-10.62-7.64-21.29-12.42-31.55a35.57,35.57,0,0,1,5.09-.77c1.92-.27,3.66-1.47,5.5-2s3.57-.36,5.3-.93c.95-.31,1.76-1,2.7-1.24,1.5-.39,3.24-.62,4.13.41s1.23,4,1.73,5.32c1.32,3.63,2.86,7.14,4,10.86,1,3.35,1.95,6.67,2.83,10,.93,3.57,2.76,6.51,3.87,9.93a30.46,30.46,0,0,1,1.78,8c.12,2.7.49,2.87-2.08,3.3-1.3.22-3.33,1-4.55.42ZM914.27,866a1.71,1.71,0,0,1-1.87-.13c5.75-2.55,11.35-6.08,17.36-7.83,5.63-1.64,11.11-3.6,16.53-5.63,4.41-1.64,8.38-2.92,12.37-5.8a23.89,23.89,0,0,0,6.23-6.29c1.85-2.86,2.26-6.92,4.27-9.49a59.68,59.68,0,0,0,9.09,8c1.1.85,3.76,2.72,4.14,4.05.48,1.67-.8,3.27-1.44,5A81.43,81.43,0,0,0,977.66,861c-.36,1.81-1.12,4.53-2.53,5.28s-5,.19-6.63.06c-8.37-.66-16.58-1.34-25-.74a199.55,199.55,0,0,1-29.23.42Zm-16.71-80.36c-1.52,0-3-.19-4.52-.19.87-4.29-1.17-9.83-1.89-14.1-.82-4.78-1.43-9.73-2-14.55a275.61,275.61,0,0,1-1.68-30.41c0-9.89-1.73-18.94-4.13-28.45-2.59-10.22-6.82-19.4-10.32-29.26,3.84,2.13,6,7.11,8,10.91a55.83,55.83,0,0,1,5.29,15.55c2,10.42,4.21,20.87,6.53,31.27,2.41,10.83,3.83,21.77,6.59,32.51,1.35,5.24,3.18,11.68,3.28,17.09,0,2.23.69,6.91-.28,8.85s-2.9,1-4.88.78Zm229.55-13.44a32.64,32.64,0,0,0,.34,3.27c-2.1,0-4.77-2.31-6.58-3.34-2.2-1.26-4.4-2.64-6.56-3.9-4.15-2.43-8.87-4-13.31-6-5.09-2.3-9.78-5.07-14.65-7.84-1.7-1-13.94-6.53-13.74-8.05l8.06-.28c2.31-.08,5.87.47,8.08-.28a6,6,0,0,0,3-3.09c.45-1.17-.56-6.54,0-6.88,3,3.22,4.89,7.5,7.58,11,3,3.84,6.81,6.08,11,8.12,4.67,2.25,9.51,4,14.28,5.93,2,.81,2,1.28,2.15,3.59.2,2.59.18,5.22.26,7.81ZM884.34,869.56c-5.07.57-10.26.24-15.36.69-1.86.16-4.43.4-2.57,3,1.18,1.65,5,1.12,6.66,1.24,4.59.3,9.45.14,14,.07,1,0,2-.32,3-.25s2.48.93,3.51.92c.64,0,.86-.7,1.41-.77a30.77,30.77,0,0,1,3.59-.24c18.18,0,36.12-.38,54.25-.4,8.68,0,17.49-.17,26.16-.6,1.82-.09,12.19.31,11.9-3.13-.15-1.77-3.53-2-4.77-2.21-.91-.14-1.86-.12-2.78-.17-2.43-.14-3.5.48-3-2.32,2-10.6,5.44-19.36,12.91-27,6.1-6.23,13.44-11.89,20.35-17.09,8.4-6.32,15.2-13,20.18-22.64A78.06,78.06,0,0,0,1040.7,781c.54-2.25.55-4.8,1.21-7,.51-1.67,1.67-2.83,2.35-4.56,8.34,14.62,19.41,26.86,29.55,40A154.43,154.43,0,0,0,1090,827.3c1.72,1.63,3.33,3.33,4.93,5.08,1.34,1.46,3.47,2.76,4.61,4.39s.81,1.48-.84,2.72c-2.19,1.63-4.6,3-6.82,4.59-3.55,2.55-7.42,4.7-10.6,7.77a115.65,115.65,0,0,0-9.43,10.91c-2,2.49-4.63,5.7-5.13,8.85-.17,1-.8,3.62,0,4.39s.65.4,1.53,0c1.16-.53,1.5-1.72,2.92-2.3,3.63-1.46,8-1,11.8-1s7.58.43,11.36.41c8.62,0,17.06.69,25.67,1.09,9.16.41,18.42-.59,27.54-.45,6.76.11,13.7-.42,20.65,0,3.57.21,7.08-.26,10.56-.32,4.56-.06,9.25.59,13.85.68,7.55.15,15,.15,22.6.34,16.34.41,32.59.83,48.94,1.11a65.6,65.6,0,0,1,6.73.21c2.28.28,1.1.79,2.67,1.65,4.4,2.42,3.38-6.54,3.28-8.31-.57-9.44-2.86-18.7-5.6-27.67-2.61-8.5-4.73-17.4-6.93-26.09-2.42-9.51-5.57-18.62-8.43-28-2.92-9.65-5.31-19.67-10.63-28.22-1.21-2-2.46-4-4.41-5.27-2.19-1.38-2.28-.57-2.28-3.09a37.47,37.47,0,0,1,.4-7.81c.48-2,.4-.83,1.49-2.3a17.28,17.28,0,0,0,2.44-3.47c3.9,4.15,12.82,2,16.59-1a28.8,28.8,0,0,0,9.4-15.68c1-4.72-.23-13.7-5.21-16-2.42-1.1-11.33-1.94-11.68-5.54-.19-1.85,3-4.47,3.67-6.07a37,37,0,0,0,3-10.14,22.51,22.51,0,0,0-6.38-17.7c-8-7.84-22.11-11.87-32.42-6.89,2.18-8.73,3.49-16.26,2.39-25.33-.94-7.82-5.34-12.2-11.39-16.09-10.33-6.65-24.38-9.27-36.2-7.34a61.09,61.09,0,0,0-7.74,2.13c-3.61,1.09-7.93.73-11.34,2.5-2.47,1.28-4.35,3.83-6.52,5.54a31,31,0,0,0-6.4,7.71c-3.77,5.88-2.3,16.79.85,22.7a9.7,9.7,0,0,0,2.63,3.19c1.17.9,2.94,1.18,3.54,2.35,1.54,3,.06,9.45-.15,12.67-.24,3.75,1.57,6.57,5.62,6.87,2.35.17,2.42-1.26,3.54,1.68a36.56,36.56,0,0,0,2.44,5.72c2.17,3.59,6.13,3.24,9.74,3.14,4.18-.11,8.3-.8,12.48-1.24-1.1,3.71-4.12,6.59-6,9.9-2.56,4.47-4.09,8.18-4.51,13.39-.32,4,.37,7.17,3,10.15,1.08,1.23,2,1.29,1.78,2.71-.17.87-1.6,2.3-2.11,3-1.34,1.83-2.89,3.51-4.07,5.47-4.54,7.53-5.88,19-5.89,27.77a5.91,5.91,0,0,0,0,1.68c.13.3,1.08,1.27,1.1,1.36a3.16,3.16,0,0,1-2.51,3.25c-1.73.2-4.89-1.31-6.5-1.81-2.57-.79-5.19-1.38-7.75-2.2-4.14-1.32-8.27-2.37-12.48-3.4-1.9-.47-3.82-.85-5.73-1.29-2.17-.5-3.18-1.46-4.3.86-1,2-.37,2.36-2.7,1.35s-4.58-2.23-6.84-3.36c-4-2-8.74-3.75-12.18-6.68-5.74-4.88-7.86-12.67-13.36-17.85-1.53-1.44-2.44-1.47-3.4-3.47a36.45,36.45,0,0,1-2.12-7.19c-1-4-1.63-8.08-2.49-12.1-1.08-5-3.41-9.57-5.11-14.35-.66-1.87-1-4.24-2.07-5.92-.28-.44-.82-.69-1-1.06a6,6,0,0,1-1-3.13c-.92-7.1-5-3.36-9.38-1.73-1.86.68-10.69,5.13-7.32,8.09-4,1.22-10.45.56-10.4,6.6,0,3.09,1.79,6.41,2.74,9.3.84,2.58,1.66,5.16,2.51,7.73,1.87,5.63,4.15,11.09,6,16.73a62.85,62.85,0,0,0,2.69,7.64c1,2.14,3.5,4.5,3.9,6.84-10.71-4.79-20.62-11.72-32.61-11.28a15.11,15.11,0,0,0-12.92,7.35c-3.64,6.07-6,12.86-9.58,19-12.93,22.28-28.35,42.52-42.54,63.88-1.09,1.64-2.49,3.19-2.87,5.22-.25,1.32.23,2.65-.06,3.92-.62,2.64-3.72,5.94-5.82,7.46-4,2.91-10.59,7-15.62,6.65,3.16-8,3.11-16.68,3-25.17a227.32,227.32,0,0,0-2-24,34.05,34.05,0,0,0-.91-5.23c-.57-2-1.35-1.82.35-3.62,2.62-2.78,5.73-5.07,8.37-7.88,5.71-6.08,11.56-10.85,16.05-18.12,4.27-6.91,8.78-14,11.94-21.59,3.26-7.79,4.56-16.11,6.18-24.36.65-3.35,3-7.08,2.56-10.58-.61-4.42-2.56-1.2-3.35,1.18-2.43,7.25-8.11,13.75-12.82,19.59-5.09,6.3-11.31,11.58-16.62,17.7-5.78,6.67-9.74,14.34-14.88,21.45,0-8.83,2.88-17.83,4.06-26.56,1-7.7,1.36-15.41,2-23.14,1.49-17.55.2-35.61-1.88-53-1-8.27-.43-16.35-.46-24.65,0-2.65,1-8.74-.3-11.08-2.54-4.49-4,5.33-4.16,6.79-.77,8.73.61,17.35-.09,26-.74,9.07-2.34,17.88-3.7,26.85-1.47,9.7-3.87,19.19-6.17,28.71-2.42,10-4.45,20.2-7.13,30.12-.72-3.12.29-7,.49-10.12.29-4.54.85-9.09.9-13.64.08-7.26.13-14.66-.26-21.88s-.27-14.59-2.35-21.45a75.28,75.28,0,0,0-3.86-9.5c-1.75-3.78-2.37-7.45-3.34-11.47-.83-3.45-2-6.8-2.6-10.32-.34-2.18-1.3-8.64-3.69-3.75-1.38,2.84-.78,7.05-.82,10.09,0,3.91.52,7.71.61,11.6.17,7.64.29,15.26.83,22.89a88.16,88.16,0,0,1-1.38,23c-1.58,8.62-2.05,17.27-2.87,26-.43,4.51-1.14,9-1.49,13.5-.18,2.39.76,9.25-.88,11-.15-4.14-1.29-8.28-2.14-12.32-1-4.78-1.43-9.8-2.18-14.65-1.21-7.86-3.56-15.36-5.12-23.12-3.21-16-5.88-36.59-19.32-47.07a52.48,52.48,0,0,0-5.6-3.51c-1.08-.64-2.68-2.29-3.91-2.58s-1.91-.07-2.45,1.56c-.76,2.28.63,3.35,1.93,5,4.49,5.73,6.41,13.08,9.18,19.8a126.22,126.22,0,0,1,9.19,48.28,255.22,255.22,0,0,0,1.48,25.78c1,9.31,2.21,19.17,4.91,28.14-2.71.63-5.65-.32-6.38,3-.18.81.14,1.77-.06,2.83s-.66,2-.93,3a44.87,44.87,0,0,0-1.15,6.29c-1.08,8.28-2.92,16.16-3.12,24.56-.18,7.76,1.27,15.62,2.61,23.23s5.2,14.21,8.24,21.14c-1.31,0-2.62,0-3.92,0Z" transform="translate(-701)"/><path class="cls-1" d="M1056.21,851.93c1.44.43,8.39,1.24,8.39,3.52,0,1.38-6.95,1.35-8.17,1.5-.08-1.67-.15-3.34-.22-5m-15.35,15.79c-4,.8-9.45-.32-12-4-1.19-1.73-1.76-4.36-2.15-6.43s-1.52-6.88-.74-8.72c1-2.27,10.17.1,12.85.36a87.32,87.32,0,0,0,14.19.19c0,5.06.25,10-2.6,14.36-2.05,3.15-5.9,3.89-9.54,4.27m.81,6.26c4.35-1.67,8.92-.58,11.75-5.49a19.51,19.51,0,0,0,1.76-4,11.58,11.58,0,0,0,.5-1.86c-.22-1.36.26-1.75,1.43-1.15,2.31-.47,4.84,1.19,7.27.7,5.89-1.19,4.82-10,.87-13.11a7.28,7.28,0,0,0-2.46-1.07c-2-.66-3,.07-4.84-.11-1.46-.15-1.86-1.76-3.43-2.46A10.26,10.26,0,0,0,1051,845c-5.65-.24-11.31-.24-17-.62-2.64-.18-5.5.26-8.1-.22-1.21-.22-1-1.07-2.19-.32s-.68,3.61-.62,4.75c.35,6.57.72,13.61,4.08,19.35,3.07,5.26,9.11,5.79,14.49,6.05" transform="translate(-701)"/><path class="cls-1" d="M1271.58,875.79l-4.2,0,4.2,0" transform="translate(-701)"/><path class="cls-1" d="M882.66,735.76v0" transform="translate(-701)"/><path class="cls-1" d="M1238.94,741.55c0,1.38,0,2.75,0,4.12,0-1.37,0-2.74,0-4.12" transform="translate(-701)"/><path class="cls-1" d="M1122.52,874.23h0" transform="translate(-701)"/><path class="cls-1" d="M1190.18,874h0" transform="translate(-701)"/><path class="cls-1" d="M946.55,816.87l.15,2.78-.15-2.78" transform="translate(-701)"/><path class="cls-1" d="M884.34,869.56l2.58,0a3,3,0,0,0-2.58,0" transform="translate(-701)"/><path class="cls-1" d="M960.79,873.67l-1.85,0,1.85,0" transform="translate(-701)"/><path class="cls-1" d="M883,747.21c0-.7,0-1.4,0-2.1,0,.7,0,1.4,0,2.1" transform="translate(-701)"/><path class="cls-1" d="M940.79,658.51l.15-2.17-.15,2.17" transform="translate(-701)"/><path class="cls-1" d="M882.69,738.52l0-2.17,0,2.17" transform="translate(-701)"/><path class="cls-1" d="M1077.05,872.77l-1.65,0,1.65,0" transform="translate(-701)"/><path class="cls-1" d="M935.5,874l-1.61,0,1.61,0" transform="translate(-701)"/><path class="cls-1" d="M877.48,823c0-.63.07-1.27.11-1.9,0,.63-.08,1.27-.11,1.9" transform="translate(-701)"/><path class="cls-1" d="M887.12,874.57h0" transform="translate(-701)"/><path class="cls-1" d="M946.69,874l-1.29,0,1.29,0" transform="translate(-701)"/><path class="cls-1" d="M1044,873.63h0" transform="translate(-701)"/><path class="cls-1" d="M1153.94,873.63h0" transform="translate(-701)"/><path class="cls-1" d="M1180.68,873.71l-1.38-.09,1.38.09" transform="translate(-701)"/><path class="cls-1" d="M1052.66,689.08l2.07-.19c-.69.05-1.42-.38-2.07.19" transform="translate(-701)"/><path class="cls-1" d="M877.41,869.83l2-.21-2,.21" transform="translate(-701)"/><path class="cls-1" d="M924.7,693.45c0,.63.09,1.25.13,1.87,0-.62-.09-1.25-.13-1.87" transform="translate(-701)"/><path class="cls-1" d="M882.52,719.42c0-.59-.1-1.18-.14-1.77,0,.59.09,1.18.14,1.77" transform="translate(-701)"/><path class="cls-1" d="M925,703.11c0,.63.09,1.25.14,1.87-.05-.62-.1-1.25-.14-1.87" transform="translate(-701)"/><path class="cls-1" d="M882.8,743.26c0-.6,0-1.2,0-1.8a1.65,1.65,0,0,0,0,1.8" transform="translate(-701)"/><path class="cls-1" d="M946.54,829.56c0,.6,0,1.21,0,1.81a1.69,1.69,0,0,0,0-1.81" transform="translate(-701)"/><path class="cls-1" d="M903.33,759.87c.07-.61.14-1.22.2-1.83-.06.62-.13,1.22-.2,1.83" transform="translate(-701)"/><path class="cls-1" d="M1261.11,703.92c.45.62,1.07.19,1.6.27l-1.6-.27" transform="translate(-701)"/><path class="cls-1" d="M1038.86,844.8h0" transform="translate(-701)"/><path class="cls-1" d="M948.14,706.47c0,.51-.11,1-.16,1.52,0-.5.11-1,.16-1.52" transform="translate(-701)"/><path class="cls-1" d="M1228.77,656.17l1.71,0a1.43,1.43,0,0,0-1.71,0" transform="translate(-701)"/><path class="cls-1" d="M925,711.88c0,.53.07,1.06.11,1.59,0-.53-.07-1.06-.11-1.59" transform="translate(-701)"/><path class="cls-1" d="M940.64,646.68c0-.49-.09-1-.14-1.45,0,.48.09,1,.14,1.45" transform="translate(-701)"/><path class="cls-1" d="M945.12,645.16c0,.53.09,1.05.13,1.58,0-.53-.08-1.06-.13-1.58" transform="translate(-701)"/><path class="cls-1" d="M1193.09,610.07l1.74.23-1.74-.23" transform="translate(-701)"/><path class="cls-1" d="M1235.05,656.59l1.78.19-1.78-.19" transform="translate(-701)"/><path class="cls-1" d="M908.39,658.13c0-.49-.07-1-.11-1.47,0,.49.07,1,.11,1.47" transform="translate(-701)"/><path class="cls-1" d="M1254.61,738.78l-1,0,1,0" transform="translate(-701)"/><path class="cls-1" d="M945.1,799.1c0,.54.07,1.08.11,1.62,0-.54-.07-1.08-.11-1.62" transform="translate(-701)"/><path class="cls-1" d="M910.08,693.78c0-.52,0-1,0-1.56,0,.52,0,1,0,1.56" transform="translate(-701)"/><path class="cls-1" d="M1178.47,608.84h1.59a1.26,1.26,0,0,0-1.59,0" transform="translate(-701)"/><path class="cls-1" d="M1037.09,731.6l1.74,0a1.4,1.4,0,0,0-1.74,0" transform="translate(-701)"/><path class="cls-1" d="M986.41,872.74l-1,0,1,0" transform="translate(-701)"/><path class="cls-1" d="M973.46,873.38l-1,0,1,0" transform="translate(-701)"/><path class="cls-1" d="M1176.09,873.63l-1.07,0,1.07,0" transform="translate(-701)"/><path class="cls-1" d="M877.77,816.94c.05-.52.11-1,.16-1.55,0,.52-.11,1-.16,1.55" transform="translate(-701)"/><path class="cls-1" d="M924.54,730l-.12,1.48.12-1.48" transform="translate(-701)"/><path class="cls-1" d="M906.54,721.58c.06-.52.11-1.05.17-1.56-.06.52-.11,1-.17,1.56" transform="translate(-701)"/><path class="cls-1" d="M1173.19,873.94l-1.08,0,1.08,0" transform="translate(-701)"/><path class="cls-1" d="M1041.67,874l-1.05-.05,1.05.05" transform="translate(-701)"/><path class="cls-1" d="M909.48,683.53c0-.53,0-1.06,0-1.59,0,.53,0,1.06,0,1.59" transform="translate(-701)"/><path class="cls-1" d="M1207.43,874.28h0" transform="translate(-701)"/><path class="cls-1" d="M909.63,874.28h0" transform="translate(-701)"/><path class="cls-1" d="M901.81,874.23l-1,.08,1-.08" transform="translate(-701)"/><path class="cls-1" d="M898.65,874.23l-1.07,0,1.07,0" transform="translate(-701)"/><path class="cls-1" d="M882.43,723.67c0-.52.05-1,.07-1.56,0,.52,0,1-.07,1.56" transform="translate(-701)"/><path class="cls-1" d="M1121.45,867.42l-3.25-.18,3.25.18" transform="translate(-701)"/><path class="cls-1" d="M1186.8,678.6l-2.82.26,2.82-.26" transform="translate(-701)"/><path class="cls-1" d="M921.32,721.47l-.09,2.82.09-2.82" transform="translate(-701)"/><path class="cls-1" d="M901.91,869l-2.94.19c1,0,2,.34,2.94-.19" transform="translate(-701)"/><path class="cls-1" d="M907.72,757.73c0-.89,0-1.79,0-2.69,0,.9,0,1.8,0,2.69" transform="translate(-701)"/><path class="cls-1" d="M910.23,785.93l-2.58,0,2.58,0" transform="translate(-701)"/><path class="cls-1" d="M1127.05,770.15l.06,2.05-.06-2.05" transform="translate(-701)"/><path class="cls-1" d="M895.9,741.19c0,.68.07,1.36.1,2,0-.68-.07-1.36-.1-2" transform="translate(-701)"/><path class="cls-1" d="M914.27,866l-1.87-.13c.47.4.94.43,1.87.13" transform="translate(-701)"/><path class="cls-1" d="M918.47,777c-.05.74-.09,1.47-.13,2.2,0-.73.08-1.47.13-2.2" transform="translate(-701)"/><path class="cls-1" d="M1152.74,661.21c0-.71,0-1.42,0-2.12,0,.71,0,1.41,0,2.12" transform="translate(-701)"/><path class="cls-1" d="M917.71,786.08l-2.34-.05a2.61,2.61,0,0,0,2.34.05" transform="translate(-701)"/><path class="cls-1" d="M896.16,791.31l1.65,0-1.65,0" transform="translate(-701)"/><path class="cls-1" d="M1097.83,866.28l-2.29,0a2.09,2.09,0,0,0,2.29,0" transform="translate(-701)"/><path class="cls-1" d="M1241.43,868.64l-2.32-.22,2.32.22" transform="translate(-701)"/><path class="cls-1" d="M921.05,727.52c0,.73-.08,1.47-.11,2.2,0-.73.07-1.47.11-2.2" transform="translate(-701)"/><path class="cls-1" d="M1168,680.33a2,2,0,0,0-2,0l2,0" transform="translate(-701)"/><path class="cls-1" d="M942.38,736c0,.62-.1,1.24-.16,1.86.06-.62.11-1.24.16-1.86" transform="translate(-701)"/><path class="cls-1" d="M887.29,721.52a1.76,1.76,0,0,0,0-1.81c0,.61,0,1.21,0,1.81" transform="translate(-701)"/><path class="cls-1" d="M920.94,700.43v0" transform="translate(-701)"/><path class="cls-1" d="M897.56,785.64c-.67-.22-1.34-.52-2,0h2" transform="translate(-701)"/><path class="cls-1" d="M1114.51,867.14l-2-.19,2,.19" transform="translate(-701)"/><path class="cls-1" d="M1207.13,867.14a1.68,1.68,0,0,0-1.85,0l1.85,0" transform="translate(-701)"/><path class="cls-1" d="M1080.57,866.23a1.8,1.8,0,0,0-2,0l2,0" transform="translate(-701)"/><path class="cls-1" d="M1227.85,776.46l-.15,1.88.15-1.88" transform="translate(-701)"/><path class="cls-1" d="M1074.24,740.38a2,2,0,0,0-1.94,0l1.94,0" transform="translate(-701)"/><path class="cls-1" d="M921.06,759c0,.62-.07,1.23-.11,1.84,0-.61.07-1.22.11-1.84" transform="translate(-701)"/><path class="cls-1" d="M1228.27,703.77c0,.49.11,1,.16,1.48,0-.5-.11-1-.16-1.48" transform="translate(-701)"/><path class="cls-1" d="M1266,846.82c0,.48.06,1,.1,1.44,0-.49-.07-1-.1-1.44" transform="translate(-701)"/><path class="cls-1" d="M907.43,762.27c0-.5.08-1,.11-1.49,0,.5-.07,1-.11,1.49" transform="translate(-701)"/><path class="cls-1" d="M954.84,865.3h0" transform="translate(-701)"/><path class="cls-1" d="M1127.26,774.38c-.1.36-.21.72-.32,1.08.72.19.83-.17.32-1.08" transform="translate(-701)"/><path class="cls-1" d="M1083.77,739.56H1082a1.47,1.47,0,0,0,1.76,0" transform="translate(-701)"/><path class="cls-1" d="M1227.52,779.43l-.06,1.64.06-1.64" transform="translate(-701)"/><path class="cls-1" d="M1221.28,867.74h0" transform="translate(-701)"/><path class="cls-1" d="M941,785.2l-.06,1.51.06-1.51" transform="translate(-701)"/><path class="cls-1" d="M1233.36,868.36a1.41,1.41,0,0,0-1.68,0h1.68" transform="translate(-701)"/><path class="cls-1" d="M1218.63,696.73l-.09,1.54.09-1.54" transform="translate(-701)"/><path class="cls-1" d="M1236.27,868.41h-1.75a1.35,1.35,0,0,0,1.75,0" transform="translate(-701)"/><path class="cls-1" d="M914.37,688.65c0-.53,0-1,0-1.57,0,.52,0,1,0,1.57" transform="translate(-701)"/><path class="cls-1" d="M1181.25,679.5l-1.67.23,1.67-.23" transform="translate(-701)"/><path class="cls-1" d="M1230.32,724.63c0,.49,0,1,0,1.46,0-.49,0-1,0-1.46" transform="translate(-701)"/><path class="cls-1" d="M910.63,724.56l.09-1.49-.09,1.49" transform="translate(-701)"/><path class="cls-1" d="M1040.33,867.83l-2.06.19,2.06-.19" transform="translate(-701)"/><path class="cls-1" d="M1042.62,849.2l1.11,0-1.11,0" transform="translate(-701)"/><path class="cls-1" d="M1042.59,867.54l-1.73.18,1.73-.18" transform="translate(-701)"/><path class="cls-1" d="M1146.15,826.9c-.75,4.44,5.83,8.78,6.35,2.47.19-2.31-1.28-3.93-2.93-5.34-2.33-2-3.64-.08-3.42,2.87" transform="translate(-701)"/><path class="cls-1" d="M1218.63,772.77c-1.55.66-13.38,4.7-7.23,6.74,1.62.54,4.08.62,5.49-.33,1.7-1.14,3.41-4.51,1.74-6.41" transform="translate(-701)"/><path class="cls-1" d="M1215.72,712.68c-4-.49-7.72,6.43-2.77,6.2,3.61-.16,8.46-6.2,2.77-6.2" transform="translate(-701)"/><path class="cls-1" d="M1201.35,729.64c-3.36,3.07,2.86,9.94,5.33,7.28,1.26-1.36.1-4.28-.94-5.42s-3-1.38-4.39-1.86" transform="translate(-701)"/><path class="cls-1" d="M1191.36,809.21c2,.33,10.69,3.31,8.88-2.11-.7-2.07-2.63-1.45-4.4-1.36-2.84.15-4.48,0-4.48,3.47" transform="translate(-701)"/><path class="cls-1" d="M1197.1,823.17c-3,1.66,1.37,11,3.83,9,3.4-2.75-1.26-8.15-3.83-9" transform="translate(-701)"/><path class="cls-1" d="M1184.17,815.69c-1.44-.62-8.24,6.23-5.65,8.14,1.33,1,3.84-.7,4.64-1.71a7,7,0,0,0,1-6.43" transform="translate(-701)"/><path class="cls-1" d="M1223.38,759.66c-1.48.25-4,.33-4.12,2.5-.08,1.91,2.2,2.53,3.81,2.68s3.87-.34,3.9-2.53c0-2.38-3.54-2.23-3.59-2.65" transform="translate(-701)"/><path class="cls-1" d="M1187,854.14c-1.56,1-8.88,4.59-5.75,7.19,1.18,1,4.74-1,5.54-2.05,1-1.22,1.89-4.08.21-5.14" transform="translate(-701)"/><path class="cls-1" d="M1166.7,828c.23-4-6.16-5.55-4.84.09.38,1.58.74,4,2.61,4.09,2.21.11,2.3-2.64,2.23-4.18" transform="translate(-701)"/><path class="cls-1" d="M1186.43,759c0,3,5.46,5.66,5.5.89,0-4.27-5.71-5.51-5.5-.89" transform="translate(-701)"/><path class="cls-1" d="M1190.06,743.32c-1.35.46-3.16.7-3.28,2.5s1.57,2.76,3.1,2.66c1.25-.09,3.09-1.06,3.32-2.48.33-2.09-1.61-2.23-3.14-2.68" transform="translate(-701)"/><path class="cls-1" d="M1215.27,798.46c0-2.49-4.72-5.47-5.6-2.59-.28.92,2,5.06,2.71,5.37,2,.82,2.24-1.09,2.89-2.78" transform="translate(-701)"/><path class="cls-1" d="M1176.36,839.82c1.6,1.51,6.42,5.74,6.06.06-.23-3.63-6.48-3.44-6.06-.06" transform="translate(-701)"/><path class="cls-1" d="M1097.93,856.05c-.52-2.39-8,1.76-5.54,4.77.84,1,3,.1,3.9-.5,1.67-1.19,1.71-2.28,1.64-4.27" transform="translate(-701)"/><path class="cls-1" d="M1139.89,804.93c-.29-1.07-.62-2.95-1.59-3.63-1.75-1.23-3.27.63-3.28,2.58,0,3.65,4,4.8,4.87,1" transform="translate(-701)"/><path class="cls-1" d="M1158.56,847.56c-2,.47-6.31,5.45-3.79,7.48s5.67-6,3.79-7.48" transform="translate(-701)"/><path class="cls-1" d="M1156.7,809.83c-2.52.21-6,4.48-2.07,5.15,3.06.54,6.62-4.11,2.07-5.15" transform="translate(-701)"/><path class="cls-1" d="M1133.94,829.47c-.63-2.22-6.87.16-6.52,2.61.19,1.31,2.74,1.61,4.08,1.27,2-.51,2.48-1.86,2.44-3.88" transform="translate(-701)"/><path class="cls-1" d="M1207.43,705.08c0-2.88-5.32-4.05-5.7-1.15-.35,2.62,5.77,5.41,5.7,1.15" transform="translate(-701)"/><path class="cls-1" d="M1135.68,859.14c-.38-1.45-.55-3.19-2.27-3.38-2-.22-1.92,1.37-1.68,3,.63,4.47,3,4.7,4,.36" transform="translate(-701)"/><path class="cls-1" d="M1219,739.34c2.75.65,7.79-4.91,4.71-6.1-2.17-.84-4.71,4.42-4.71,6.1" transform="translate(-701)"/><path class="cls-1" d="M1183.91,782.49c1.4.69,1.72,1.11,2.8,0,.94-1,.9-3.74.09-4.76-3.08-3.94-3,3.2-2.89,4.79" transform="translate(-701)"/><path class="cls-1" d="M1172.49,774.51c-1.46.19-5.79,4.51-3.54,6.22,2.77,2.1,4.34-4.48,3.54-6.22" transform="translate(-701)"/><path class="cls-1" d="M1140.91,775.64c1.06,4.29,3.71,1.41,3.56-1.84-.24-5.19-3-.67-3.56,1.84" transform="translate(-701)"/><path class="cls-1" d="M1124.8,844.47c-1.79.78-4.23,8-1.66,8.36,2.88.43,1.92-6.87,1.66-8.36" transform="translate(-701)"/><path class="cls-1" d="M1147.22,840.42c-2-.72-2.8,3.82-1.61,4.66,2.63,1.86,2.07-3.58,1.61-4.66" transform="translate(-701)"/><path class="cls-1" d="M1166.7,828c0,.6,0,1.21.08,1.81,0-.61,0-1.21-.08-1.81" transform="translate(-701)"/><path class="cls-1" d="M1097.93,856.05c0,.62,0,1.24.07,1.86,0-.62,0-1.24-.07-1.86" transform="translate(-701)"/><path class="cls-1" d="M1133.94,829.47l0,1.57,0-1.57" transform="translate(-701)"/><path class="cls-1" d="M906.72,820.44c-4.26-.14-9-1.82-13.2-1.29-1.15.15-3.8.45-1.95,2.25.88.85,5.1.41,6.38.69a109.4,109.4,0,0,0,24.72,2.72c3.75-.07,7.53-.39,11.28-.6s4.12-1.8-.1-2.31a113.09,113.09,0,0,0-13.28-.34c-4.63,0-9.23-.79-13.85-1.12" transform="translate(-701)"/><path class="cls-1" d="M897.37,809.68c.41,1.23.77,4,2.34,4.22,2.2.26,2.56-3.7,2.48-5.15-.1-1.75-.7-4.66-2.77-4-1.75.51-1.92,3.58-2,5" transform="translate(-701)"/><path class="cls-1" d="M910.69,808.79c-.32-1.31-.48-4.27-2.25-4.37-2-.11-2.54,3-2.53,4.44s.51,4,2.08,4.37c2.14.44,2.33-3,2.7-4.44" transform="translate(-701)"/><path class="cls-1" d="M932.87,811.14c.64,1.57,1.06,3.74,3,2.67,1.53-.83,1.75-4.18,1.46-5.72s-.93-3.41-2.68-2.69c-2,.82-1.8,4-1.82,5.74" transform="translate(-701)"/><path class="cls-1" d="M916.07,809.68c1.89,6,5.33,1.94,4-2.54-1.37-4.68-3.86-.13-4,2.54" transform="translate(-701)"/><path class="cls-1" d="M925.27,810c.52,1.06,1.08,3.34,2.5,3.1,1.73-.3,1.78-3.8,1.59-5.1-.16-1.14-.65-3-2.1-3-2.1,0-2,3.64-2,5" transform="translate(-701)"/><path class="cls-1" d="M887.61,811.13c1.41,3.31,3.34.46,2.72-1.89-.92-3.48-2.64-.4-2.72,1.89" transform="translate(-701)"/><path class="cls-1" d="M922,821.57l4.6,0a9.67,9.67,0,0,0-4.6,0" transform="translate(-701)"/><path class="cls-1" d="M891.53,819.14l4,0a6.63,6.63,0,0,0-4,0" transform="translate(-701)"/><path class="cls-1" d="M906.72,820.44l3.19.23-3.19-.23" transform="translate(-701)"/><path class="cls-1" d="M932.87,811.14l0-2.41a2.76,2.76,0,0,0,0,2.41" transform="translate(-701)"/><path class="cls-1" d="M924.52,824.79l-1.85,0,1.85,0" transform="translate(-701)"/><path class="cls-1" d="M934.89,824.22h0" transform="translate(-701)"/><path class="cls-1" d="M929.76,821.64l2.61.22-2.61-.22" transform="translate(-701)"/><path class="cls-1" d="M918,821.56h2.57a3,3,0,0,0-2.57,0" transform="translate(-701)"/><path class="cls-1" d="M925.27,810l.06-2.51-.06,2.51" transform="translate(-701)"/><path class="cls-1" d="M937.37,808.09c0,.82,0,1.63,0,2.45,0-.82,0-1.63,0-2.45" transform="translate(-701)"/><path class="cls-1" d="M901.84,820.14l2.27.21-2.27-.21" transform="translate(-701)"/><path class="cls-1" d="M887.61,811.13c0-.71,0-1.42.07-2.14,0,.72,0,1.43-.07,2.14" transform="translate(-701)"/><path class="cls-1" d="M919.93,824.81l-1.58,0,1.58,0" transform="translate(-701)"/><path class="cls-1" d="M897.37,809.68c0-.51.09-1,.14-1.53,0,.51-.09,1-.14,1.53" transform="translate(-701)"/><path class="cls-1" d="M916.07,809.68c0-.52.07-1,.1-1.57,0,.52-.06,1-.1,1.57" transform="translate(-701)"/><path class="cls-1" d="M1188.73,655.21c2.08-.57,2.47-3.64,2.14-5.52l-1.14-2.72c.15-.34.3-.67.44-1-.19-1.87.3-2.68-1.75-1.92-3.8,1.41-4.41,11,.31,11.17" transform="translate(-701)"/><path class="cls-1" d="M1158,649.28c-1.71-.14-4.82,2-3.12,4,1.06,1.25,4.54.66,6,.92,1.88.35,3.85.82,2.83-2.14-.8-2.32-3.66-2.82-5.67-2.76" transform="translate(-701)"/><path class="cls-1" d="M1159.75,663.2c1.74-1.46,1-8.13-1.68-6.93s.23,6,1.68,6.93" transform="translate(-701)"/><path class="cls-1" d="M1190.87,649.69v2.1a2.2,2.2,0,0,0,0-2.1" transform="translate(-701)"/><path class="cls-1" d="M1188.73,655.21l-1.06,0,1.06,0" transform="translate(-701)"/><path class="cls-1" d="M973.88,847.16c.16,3,3.27.79,3-1.24-.4-3.68-2.39,0-3,1.24" transform="translate(-701)"/></g><g id="Layer_4" data-name="Layer 4"><path class="cls-3" d="M1044,362c.14,1.33,1.8.34,2,1.06.09.45-1.63,1.55-2,1.86,1.18.73,2.71-.9,3.61-1.57.45.5.6.76.17,1.32-.75,1-.7-.33-1.59.35.36.63.68.28,1.15.12-.22,1.18.25.44.59,1.19a4.89,4.89,0,0,1,.32,1.75l-1.29,2.87c-.52,1.15-.37,1.52-1.6,1.12.14-.24,1.08-1.4,1-1.69s-1.34-.8-1.67-1.08c-.57-.5-.56-.91-.93-1.44.16-.49,0-.72-.34-.69l-.43,1.12h0c0,.8.7.74,1.09,1.51.59,1.18.26.48-.25,1.42s-.57,2.09-1.38,2.55l1.29.58c-1,1.1,1.08.59,1.43.48-.36.75-.73,1.5-1.09,2.26a8.55,8.55,0,0,1-2.27-2.69l-1.66,3h0l1.61-.13c-.07.14-.77,1.1-.72,1.32.23.88,2.07.41,1.85,1.56a14.49,14.49,0,0,1-2,1.93c.82.38,1.19.24.89,1.2l-1.14-.71h0a10.55,10.55,0,0,0-.94,1.79,2.07,2.07,0,0,1-.24,1.19,6.79,6.79,0,0,1-.77.93,12.57,12.57,0,0,0-.08,4.32c.61-.76,1.94.62-.33.6-1,0-.93-.22-1.32.64-.31.69-.47,1.28.37,1.36a7.49,7.49,0,0,0-.6,3.55,19.89,19.89,0,0,1-.62,3.22l.62-.87c.52,1.17.1,2.14-.18,3.38-.55-.76-.64.57-1.12.43-1-.29-.24-.49-.63-1.14s-.3-.73-.94-1.07a12.26,12.26,0,0,0-3.29-.68,39.57,39.57,0,0,0-4.86-.47c-6.12-.34-12.22-.49-18.34-.23a126.6,126.6,0,0,0-16.94,1.95,130.5,130.5,0,0,0-17.37,3.89c-1.11.36-2.22,1.12-3.32,1.38s-2.09.23-3.19.59c-2.61.87-5.31,1.52-8,2.35a72.07,72.07,0,0,0-8.62,2.89c-1.17.54-2.24,1.29-3.42,1.84s-3,1-3.56,2.2a1.71,1.71,0,0,0-.07,1.33c.27,1,.5.9,1.27.84a19.36,19.36,0,0,0,3.5-1.21c2.85-.85,5.73-1.53,8.62-2.21,5.2-1.22,10.43-3.43,15.56-4.26,3-.49,5.93-1.89,9-2.39.67-.11,2.61-1,3.16-.7a9.27,9.27,0,0,1,.61,1.39,16.62,16.62,0,0,0,1.54,2.6c1.79,2.45,4.21,4.44,6.36,6.56,2.47,2.42,4.6,5.09,6.87,7.69l.6-.69c-.23,1.62,1,2.8,2,3.92a27.2,27.2,0,0,1,3,4.07c.75,1.23,1.71,2.31,2.56,3.44s1.38,2.44,2.14,3.63c1.76,2.73,3.48,5.52,5.26,8.22a31.64,31.64,0,0,1,2.14,4.14c.51,1.15,2.09,3.5,2.08,4.6-.13.54,1,3.81-.23,2.26l-.61.92,1-.42c-1.05.93.89,1.08.93,1.61l-.53.49c-.3.61-.69.68-1.15.22-.53,0-.63-.26-1.21-.08.54.88,1.27.34,1.53,1.54s-.55,1.28-1.39,1.89l0,0,0,.06c-.19.54-.7.3-1.27.18-1.36-.3-2.86-.86-4.18-1.29-2.87-.93-5.75-1.73-8.72-2.38-6.76-1.48-13.48-1.5-20.32-2,.19-.75.19-.69,0-1.15.26.6-1.38-.2-.15,1.13-3.19.48-6.62,0-9.84.17.15-.33.5-.71.18-.95-1.55,2.18-6.64,1.17-9.16,1.46-1.49.16-3,.5-4.43.71l-.62.09c-.52.08-1,.16-1.55.29s-1.75.88-2.37.7c.93-1.81-.13-.24-.27-.22A13.83,13.83,0,0,1,953,463c.74-2.81,2-5.4,2.5-8.3.33-1.81,1.2-4.72-.58-6a10.42,10.42,0,0,0-3.71-1.15c-1.25-.27-3.43-.29-4.5-1-.84-.56-1-1.07-2.12-1.51-1.27-.5-1.86-1-3.16-.61.54-.65,1.28-1.12.26-1.81-.42-.28-1.26.08-1.4-.53-.77.54-.59,1-.81,1.71a2.15,2.15,0,0,0,.24.9l-1.23.48c.27-.69-.49-.29-.64-.63a4.93,4.93,0,0,1-.06-1.84,3,3,0,0,0-2.1,1.43c-1-.62-.61-.65-.07-1.56-.86-.22-1.05.22-1.19.93L933,443c1,0,1.28-.79,1.31-1.65l-1.2.37-.26,1.26c-.63.52-2.25-.46-2.77-.74-1.83-1-2.51-1.27-2.22-3.43.24-1.82.75-3.64.88-5.47a44.89,44.89,0,0,0-.22-6.24c-.29-3.92-.8-7.79-.94-11.73-.08-2.14-.17-4.27-.23-6.4,0-1.7-.6-3.57,1.51-3.7-.25-.82.54-1.76,1.35-2.2.28-.63.59-.68.92-.16a.83.83,0,0,0,.8-.12c1.17-.24,2.59-1.88,3.64-2.46s3.28-1.39,4-2.37-.35-.84-.12-1.71c.31-1.19,1.36.53,1.52.77.37-.35,1.75-1,1.74-1.54l-1-.19a8.16,8.16,0,0,1,1.63-.91c.72-.13.45-.32,1,.49a7.49,7.49,0,0,1,1-1.54,10.84,10.84,0,0,1,1.21-.22c1-.32.87-1.06,1.57-1.41.34-.16.76.1,1,0,.46-.19.47-.87.89-1.11s1.26,0,1.69-.17c.71-.25.68-.49,1.21-.95.75-.65,1.43-.55,2.26-1s.75-1.68,1.52-1.89c1-.28,1.3.7,1.87-.26.13-.22-.44-.55-.08-.89s.63.09.83.42l.72-1.31h0c1.12.63.66-.17,1.52-.59.38-.18.69.2,1.11,0s.37-.52.6-.74c.43-.43.67-1,1.33-1.22a5.36,5.36,0,0,0,1.54,0l-.56-.85a9.09,9.09,0,0,0,2.9-.16,4.59,4.59,0,0,0,1.19-.49c.8-.6.62-.45.64-1.57a3.14,3.14,0,0,0,3.59-.31,20.06,20.06,0,0,1,1.57-1.3c.27-.13.54-.26.82-.37a.64.64,0,0,1,1,0c.49-.12.48-.22.87-.45.11-.21.23-.42.35-.63a7.11,7.11,0,0,0,1.21-.2c1.55-.4,2.49-1.41,3.9-.48l.57-1.11c.59.95,1,.05,1.83-.32.34-.16.78-.19,1.09-.34l.51.13h0c.15-.45.3-.9.46-1.34a8.6,8.6,0,0,0,1.8.73c.5-.05,1.11-.89,1.6-1,.74-.24.47.08,1.2.1.56,0,.82.09,1.31-.37-1.63-.45.44-.62,1.13-.76,1.08-.21,1.63,0,2.38-.8h-.77c.77-.68.51-.44,1.32-.36.25,0,1.34.64,1.36-.17,1,.63,1,.63,2.11.37.48-.12.89-.51,1.41-.52s.87.24,1.33.19a12.33,12.33,0,0,0,1.55-.48c.51-.18.85-.57,1.34-.72s1.22,0,1.79-.07c1.68-.35,2.68-1.34,4.48-.77.22-1.62,2.24-1.23,3.33-1.05.75.12,1.14.44,1.93.07a14.48,14.48,0,0,1,1.73-1,16.48,16.48,0,0,1,1.85-.41,2.69,2.69,0,0,1,1.09-.1,1.56,1.56,0,0,1,.92.5l0,.05a5.58,5.58,0,0,1,.82-.68c.65-.5,1-.3,1.35-1.3l-1.37-.31h0a3.78,3.78,0,0,1,1.87.17c.43.2,1.15,1.22,1.59,1.22.79,0,1.07-1.09,1-1.67.65,1.55,1.21,1.81,2.7,1l.53-.27a.63.63,0,0,1,1,0l.62.34h0l.77-1.23c.52.73,1,.77,1.89.62.59-.12,1.83-1.18,2.27-1.17.25,0,.57.63,1,.75a1.91,1.91,0,0,0,2.05-.95l.39.85Zm-26.57,104v0h0l0,0h0Zm-.85-1.47v1.3l.44.09h0l.42.08v-.07A1.45,1.45,0,0,0,1016.61,464.53Zm-39.07-5.71c-.14.42-.28.85-.43,1.27l1.4.13Zm-54.18-34.21c1,.31,1,.27,1.19,1.22,1.09,5.37-2.58,11.46,0,16.59a184,184,0,0,0-23.12.69c0-2.91.17-5.82,0-8.73-.09-1.33-.22-2.64-.34-4-.15-1.68-.09-1.58,1.28-1.85.72-.14,1-.6,1.67-.86.52-.21.75.05,1.26.13a3.37,3.37,0,0,0,1.76-.18c1.79-.36,3.31-.2,4.74-1.52.73-.05.49.62,1,.56s.62-.73,1-.89c1.18-.5,3.14-.35,4.43-.5s2.5-.72,3.76-.88A3,3,0,0,1,923.36,424.61ZM938,440.26c-.26.92-1.34-.3-1.37.42v.05c.05-.12,1.14,1.36,1.08,1.31.58.45.93.41,1.61-.09C938.17,441.89,938.31,441.15,938,440.26Zm3.33,1.35c.44.24.58-.37.81-.75C941.7,440.61,941.62,441.18,941.37,441.61Zm-1.3-4.05a5.63,5.63,0,0,1,.13,1.69c1-.13,1.34-.2,1.37-1.28l-.54.33C940.75,437.73,940.69,437.69,940.07,437.56Zm-7.88.91.7-.44C932.55,437.54,931.94,438.11,932.19,438.47Zm2.68-9,.89-.46C935,428.08,935,428.41,934.87,429.52Zm-1-7.73h-1.15C933,422.52,933.9,422.7,933.91,421.79Zm113.73-41.74.78.47c-.69.61-1.54,1.23-.89,2,.53.59,3,.9,3.74,1.12a7.55,7.55,0,0,1-1.16,1.3c-.28.15-.52-.49-1.09.14.92.49.68.13.42,1.15a8.52,8.52,0,0,1-1,1.78q-1.08,1.95-2.2,3.89-2.31,4-4.85,7.79c-.27-1.45.56-3.07,1-4.46l1.65-5.26A68.57,68.57,0,0,1,1047.64,380.05Zm-40.46,3.9-2,.49C1006.28,384.81,1006.28,384.81,1007.18,384Zm33.4-6.11c-1,.44-1.08.77-.31,1.33C1040.37,378.74,1040.44,378.43,1040.58,377.84Zm0-10.62c-.14.56-.94,0-1.12.42-.43.95.88.83,1.35.78C1040.75,368,1040.67,367.62,1040.6,367.22Zm5.44-.66c-.27,1.22-.27,1.22.92,1.42Zm-21.55-1.12v0h0Z" transform="translate(-701)"/><path class="cls-1" d="M872.48,491.22c-.19.93-.65,1.36-.18,2.22a2.35,2.35,0,0,0,2.31,1ZM852,457.93l-3.82,1.26a42.88,42.88,0,0,0,3.14,3Zm62.77,4.15a14.57,14.57,0,0,0-5.83-1.21c.28,1.64.56,3.28.85,4.91l5-3.7ZM869.53,588c-.36-.65-2.77-5.64-3.28-5.39-.28.13-.33,2.89-.38,3.29l-.48,4.18a9.5,9.5,0,0,0,4.14-2.08Zm-16.76-40.31,1.08,3.31a7.49,7.49,0,0,0,.58,1.75c.4.6.08,1,.64.31s.79-2.57,1.06-3.42c.4-1.3.8-2.6,1.21-3.9-1.82,0-3,1.44-4.57,2Zm-37.43-65a46.86,46.86,0,0,0-6.52,4.87c1.72-.09,4.09,1.12,5.71.59q1.11.25.75-.84l0-1.51ZM848.4,494l-.12,8.93c2.11-1.75,4.34-3.38,6.37-5.22L848.4,494Zm74.42,24.11a101.63,101.63,0,0,0-1,12.08c0,.72-.33,1.79.14,2.42s1.82,1,2.51,1.34c1.93,1,3.85,2,5.78,3q-3.71-9.4-7.4-18.79Zm49.71-23.83L987,487.35l-14-6.16-.45,13.05ZM923,504.72c.88.07,1.06-3.27,1.22-4.15.3-1.67.6-3.35.91-5,.63-3.34,1.28-6.67,2-10q2.05-10,4.53-19.88a44.67,44.67,0,0,1-4.88-1.08c-1.33-.41-2.92-.22-4.1-1.06-.19,3.1.54,6.4.79,9.5a107.34,107.34,0,0,1,.34,10.76c-.15,7-.5,13.95-.78,20.93ZM811.29,597.85c.83-.21-.15-11.63-.18-13.28-.09-4.76-.05-9.52.09-14.28a152.89,152.89,0,0,1-13.9,7.55c1.2,1.6,2.32,3.31,3.64,4.8s2.95,2.79,4.21,4.43c2.55,3.32,4.27,7.07,6.14,10.78ZM920,531.78c.25-3.43.49-6.85.88-10.27.17-1.45,1.67-9.17-.58-9-1.28.08-3.56,1.93-4.74,2.57q-2.34,1.27-4.7,2.53c-3.09,1.65-6.21,3.25-9.32,4.88l18.46,9.3Zm-12.45-71.5a66.34,66.34,0,0,1-7.57-.95c-1.36-.28-2.72-.26-4.09-.45-1-.14-2.89-1-3.81-.72-1.16.32-1.65,6.08-1.82,7.52-.29,2.33-.5,5.15.52,7.35,2,4.25,7.39,1,10.05-.71a56.63,56.63,0,0,0,6.86-4.81c1.79-1.61.25-5.11-.14-7.23Zm12.71,46.05c1.94-.75,1.92-1.74,2-3.76.14-2.45.23-4.91.33-7.37.18-4.38.36-8.76.37-13.14a122,122,0,0,0-.57-12.82c-.15-1.5.05-4.07-.73-5.36s-3-1.22-4.18-1.17-2.51,1.36-3.54,2.18-3.48,2.17-3.68,3.54.58,3.72.89,5.21c1.12,5.43,2.5,10.81,4,16.16a169.82,169.82,0,0,0,5.12,16.53Zm-48.93-13.59c.14-1.22.6-2.23,0-3.4-.52-1-1.36-2-2-3-1.81-2.72-3.84-5.34-5.81-7.95-1.81-2.38-3.66-4.75-5.56-7.07-1.06-1.29-2.15-2.55-3.23-3.82-.79-.93-1.54-2.23-2.67-2.72q-1.37,7.89-2.28,15.85-.43,3.84-.77,7.7c-.07.73-.66,3.17-.31,3.86s2.67,1.69,3.38,2.14c2,1.24,3.48,3.09,5.39,1.12,1.32-1.37,2.39-3.3,3.85-4.48a7.81,7.81,0,0,1,2.33-.94c1-.42,1-.84,2.2-.23,2,1,3.15,2.49,5.46,2.91Zm-99.68,25.85c0,3.65-.33,6.65,2.11,9.63,2.12,2.61,4.36,3.24,7.39,4.3,1.78.62,1.92.07,3.38-.93s2.9-1.69,4.28-2.67c3-2.1,5.91-4.27,8.79-6.48,1-.75.82-.49.69-1.4a13.66,13.66,0,0,0-1-2.68c-.57-1.43-1.24-2.82-1.91-4.2a42.9,42.9,0,0,0-2.39-4.74,20.2,20.2,0,0,0-1.33-1.72c-1-1.17-.95-1.13-2.15-.2a56.09,56.09,0,0,1-7.75,5.63q-5.06,2.72-10.09,5.46Zm76.09-27.31c.43-5.23.9-10.44,1.6-15.65.36-2.67.77-5.34,1.17-8,.16-1.09.76-2.91.45-4s-1.68-2.05-2.43-2.82c-.2-.2-.82-1.06-1.09-1.1s-1.39.74-1.7.91c-1.12.63-2.22,1.28-3.31,2-2,1.29-4,2.67-6,4.11-4.07,3-8,6.27-11.94,9.4,3.58,3.21,8,5.72,12,8.34,2.36,1.55,4.75,3.08,7.16,4.55a17,17,0,0,0,4,2.26Zm-50.59,93.08c-2.94,1.89-5.75,3.89-9.06,5.09a68.47,68.47,0,0,1-10,2.31c-1.72.34-3.33.73-5.08,1a14.51,14.51,0,0,0-3.39.46c-.8-.18-1.08.09-.86.8v.67c.19,3.08,2.12,6.8,3.81,9.33a27.37,27.37,0,0,0,3.51,4.09c1.42,1.4,2.24,2.39,4.26,1.84,3.39-.94,6.4-2.87,9.84-3.7,2.72-.65,5-2.06,7.64-2.77,3.27-.88,6.51-1.88,9.83-2.61a64.87,64.87,0,0,0-4.58-8.49c-1.9-2.7-4-5.31-6-8Zm19.13-95.68c6.08,1.29,12.68,2.5,18.1,5.72,2.11,1.26,4.79,3.19,5.38,5.74.71,3.05-2.25,4.89-4.71,5.81a37.11,37.11,0,0,1-9.29,1.81c-1.65.17-3.31.26-5,.33-1.34.06-3.61-.27-4.84.25-.77-.16-1,.14-.81.92l-.06.84-.15,2.5c-.11,1.67-.22,3.34-.32,5-.23,3.64-.47,7.27-.7,10.9,3.22-1.94,5.84-4.74,9-6.81l4.47-3c.63-.41,1-1,1.63-1.38a14.24,14.24,0,0,0,2.3-1.48c3.14-2.73,6.62-5.08,9.94-7.58,1.51-1.14,3.16-2.18,4.59-3.41s1.32-2.35,1.3-4.22.75-4.42.44-6.34c.29-.64.08-1-.64-1.21l-1.42-.94-2.84-1.87-11.3-7.43-5.65-3.71c-.53-.35-2.23-1.9-2.83-1.86s-1.67,1.2-2.13,1.57c-.71.57-1.39,1.17-2.15,1.67a10.75,10.75,0,0,1-1.19.68c-.65,0-.88.41-.69,1.07-.6,1.83-.32,4.46-.45,6.39Zm83.48,87.78c-1.3-6.48-3-14.15-8.32-18.61s-13.41-2.91-17.76,2.27a25.91,25.91,0,0,0-4.57,8.87c-1.05,3.28-2.6,7.56-2.37,11,.1,1.53,1.39,3.19,2.12,4.53s1.24,3.36,3.07,2.91c2.83-.7,5.72-2.36,8.37-3.54s5.51-2.17,8.3-3.33c1.85-.76,3.76-1.34,5.61-2.11s4-.89,5.55-2ZM981.88,539c3.83,1.43,5.86-.75,8.61-3.2,2.59-2.32,5.41-4.55,7.8-7.08a55.69,55.69,0,0,0,6.36-8.73c1.93-3,4.54-6.34,5.75-9.76a44.35,44.35,0,0,0,1.29-5.47c.1-.43.72-2,.54-2.4s-1.94-.58-2.4-.66a38.64,38.64,0,0,0-11.26-.24c-7.15.91-13.17,4.84-15.51,11.81-2.75,8.17-1.6,17.3-1.18,25.73Zm-24.07-71.46c-.08,1.42,3.32,1.86,4.2,2.2,2,.79,4,1.62,6,2.55,4.05,1.92,8.39,3.19,12.26,5.49,8.35,5,17.45,8.51,25.89,13.26,1.31.75,3.88,2.52,5.4,2.39.8-.06.19.58.73-.7a8.67,8.67,0,0,0,.38-1.54c.33-1.48.59-3,1-4.43a52.41,52.41,0,0,0,1.51-7.12c.12-1.06.25-2.11.27-3.17s.31-3.75-.16-4.69c-.32-.62-.38-.41-1.18-.59-.46-.11-.94-.32-1.38-.47a15.77,15.77,0,0,0-3.17-.77,23.82,23.82,0,0,1-2.77-.65c-1.06-.21-2.16,0-3.23-.28a7.25,7.25,0,0,0-2.94-.49,5.88,5.88,0,0,1-2.68-.51,16.93,16.93,0,0,0-3.12-.2c-1.22-.12-2.43-.29-3.65-.4-5.48-.5-11,.07-16.54,0-3-.07-5.92.33-8.9.16a65.07,65.07,0,0,0-7.9,0Zm13.9,29.1a55.28,55.28,0,0,0-7.67,4,82.18,82.18,0,0,0-8.3,5.24c-4.48,3.25-9.71,7.15-11,12.9-1.28,5.91,3.8,10.82,8.59,13.31,5.46,2.83,11.84,4.34,17.85,5.47-.47-13.64-.14-27.29.48-40.91Zm-80.25,31.06a28.78,28.78,0,0,0-4.52,2.06,30.13,30.13,0,0,0-3.93,1.88,61.82,61.82,0,0,1-6.61,3.42c-5.33,2.48-10.51,5.58-15.79,8.33a3.81,3.81,0,0,0-2.35,2.74c-.54,1.67-1,3.34-1.56,5s-1.23,3.22-1.06,4.88a15.67,15.67,0,0,0,1.42,4.13c1.37,3.32,2.86,6.59,4.4,9.83a68.91,68.91,0,0,0,4.43,8.69c1.51-7.37,2.89-15.64,8.46-21.2a13.26,13.26,0,0,1,19.52.36,27.19,27.19,0,0,1,5.12,9.79,47.05,47.05,0,0,1,1.39,5.62c.41,2,.29,3.1,2.53,2.51,1.78-.46,3.66-.83,5.41-1.36.9-.28,1.79-.59,1.84-1.3.06-.9-1.13-2.76-1.47-3.61l-5.38-13.17-5.83-14.31-2.92-7.14c-.88-2.17-1.6-5.38-3.1-7.17Zm80.46-35.86.18-6.47c0-1.28.63-3.76-.47-4.69-.69-.58-2.74-1-3.62-1.45-1.72-.79-3.59-1.15-5.32-1.94-6.79-3.08-13.86-5.66-20.85-8.16-1.51-.53-3.05-1-4.57-1.51-.82-.29-3.85-2-4.62-1.53s-1.23,4.78-1.46,5.69q-.8,3.26-1.53,6.52c-1.92,8.45-3.54,17-5,25.5,3.75-1.37,7.36-3.78,10.92-5.64s7.37-3.85,11.09-5.73c1-.53,4.75-3,5.6-2,1.35,1.59-2,3.4-2.82,4.06-3.37,2.57-6.91,4.8-10.5,7s-7.59,4.35-11.33,6.62c-1.35.82-3.5,1.81-4.05,3.22-.7,1.81-.24,4,.35,5.77,1.46,4.29,3.07,8.53,4.77,12.72q1.15,2.87,2.37,5.71c1,2.25,2.26,2.75,4.41,3.81,9.15,4.51,18.67,8.81,27.45,14-1.51,1.69-5.08-1.16-6.53-1.89l-8.07-4c-5-2.52-10-5.08-15-7.55a174.4,174.4,0,0,0,11,21.5c-1.07.35-.81.37-1.48-.28a10.43,10.43,0,0,1-1.3-2.31q-1.15-2.13-2.32-4.26c-1.62-2.94-3.31-5.83-4.78-8.85-1.11-2.26-1.95-6.21-4.27-7.38-2.9-1.45-5.84-2.87-8.74-4.34A312.74,312.74,0,0,0,923,567.41c0,.56.57,2.23-.52,2.05-.49-.08-.61-3.16-.69-3.8-.36-2.95-.65-5.91-.89-8.87q-.71-8.88-.66-17.79-1.15,8.64-2.32,17.28l-1.1,8.19-.58,4.29a10.22,10.22,0,0,1-.29,2.15c-.37,1-.25.91-1.4,1.35q1.79-11.25,3.29-22.53.72-5.51,1.36-11l.33-3c.06-.5.52-2.12.28-2.54s-1.82-.88-2.27-1.09l-3-1.44c-3.22-1.56-6.45-3.13-9.63-4.76a23.63,23.63,0,0,0-4.38-2.2c-1.52-.39-2.64.66-4,1.31-1,.51-3.41,1.18-4.09,2.06s1.27,4.16,1.77,5.38q2.1,5.2,4.21,10.39,4.26,10.54,8.53,21.07l2.09,5.15c.44,1.1,1.17,4.23,2.29,4.37.49.06,1.31-.47,1.79-.62a13.6,13.6,0,0,1,2.08-.32,23.2,23.2,0,0,0,4-1.32c3.31-1.18,6.75-1.92,10.1-3s6.66-2.34,10-3.44a95,95,0,0,0,9-3.46c3.09-1.39,6.25-2.61,9.27-4.15,5.48-2.82,10.91-5.44,15.77-8.91,1.14-.82,2.36-1.64,3.49-2.51s2.88-1.71,3.56-2.73a1.71,1.71,0,0,0,.2-1.62c-.31-.51-1.73-.48-2.39-.58l-6.24-.92c.14,1.37.29,2.75.38,4.12.07,1,.61,3.55-.17,4.3-1.05-1-.67-4-.75-5.39a9.41,9.41,0,0,0-.15-2.77c-.35-.71-1.32-.71-2.21-.91a87.84,87.84,0,0,1-11.06-2.93c-6.11-2.25-13.4-6-14.68-13.11-1.33-7.39,5-13.7,10.37-17.75A83.77,83.77,0,0,1,963.84,499c1.64-.9,3.28-1.81,4.93-2.69.6-.32,2.57-1,2.89-1.55s.18-2.16.26-2.83ZM839.21,603.49l-.89.43c3.43-9.39,6.83-18.74,9.72-28.32q2.1-6.93,4.25-13.85c.62-2,2.12-4.72,1.74-6.79a42.91,42.91,0,0,0-2.23-6.77c-5.27,3.22-10.65,6.27-16,9.34-4.81,2.76-9.69,5.2-14.53,7.92a81.17,81.17,0,0,1-7.61,3.46c-2.1.92-1.33,3.83-1.32,5.77,0,6.83-.08,13.69.25,20.52.12,2.49-.11,5.34,1.44,7.43,2,2.67,3.84,5.39,5.65,8.2.68,1,3.51,6.74,4.59,6.63.71-.08,1.39-2.35,1.75-2.89a18.18,18.18,0,0,1,2.93-3.08c4.44-4,9.34-6.81,14.43-9.72s10.46-5.69,15.73-8.49c1.19-.63,2.47-1.08,3.65-1.73a4.9,4.9,0,0,0,1.69-1.12c.45-.69.33-2.63.43-3.46.21-1.7.56-3.47.6-5.19s-1-3.17-1.68-4.66c-3.16-6.53-6.23-13.09-9-19.82-2.33,7.75-4.77,15.45-7.05,23.21-1.19,4-2.62,8-4,12l-2.13,6.1c-.55,1.59-.86,3.91-2.42,4.86ZM887.72,457.6a22.41,22.41,0,0,1-5-.66,15.46,15.46,0,0,0-1.79-.27c-.71-.07-1.35-.46-2-.54a4.94,4.94,0,0,0-1.74.26c-1,.34-1,.16-1.07,1.37-.09,1.87-.17,3.74-.29,5.6-.5,7.34-1.37,14.6-2.54,21.86-.23,1.47-.86,3.39-.55,4.85a13.33,13.33,0,0,0,2.14,3.86c1.52,2.29,5.14,3.46,7.69,4.13s5.49,1,8.05,1.64c.71.18,1.53-.11,2.28.07a11.34,11.34,0,0,1,1.88.84c1.58.71,3.35.85,5,1.4,3.24,1.09,6.71,1.07,9.95,2.11.83.27,1.54.92,2.34,1.15a20.49,20.49,0,0,0,2.24.11c1.62.26,3.13.83,3.48,2.58,1-.78,1.13-.57,1-1.78a17,17,0,0,0-.75-2.49l-1.74-5.76c-1.15-3.8-2.29-7.61-3.34-11.43q-1.43-5.14-2.54-10.35c-.37-1.77-.68-3.54-1-5.31-.09-.52,0-1.33-.5-1.68s-1.57.78-2.07,1.13c-3.48,2.46-11.5,9.76-15.77,5.34-2.29-2.38-2.1-6.51-1.81-9.55a49.44,49.44,0,0,1,.92-5.53c.1-.46.68-1.92.47-2.25s-2.52-.6-3-.7ZM1008.58,500l2.76.35a11.47,11.47,0,0,0-.26-2.56c-.38-1-1.33-1.08-2.37-1.49-1.65-.64-3.33-1.21-5-1.91-3.54-1.51-7.06-3-10.6-4.54-1.55-.67-3.37-1.74-5.07-1.24a39,39,0,0,0-5.37,2.49l-5.83,2.8-2.74,1.31c-1.43.69-1.62.76-1.75,2.37-.68,8.23-.75,16.79-.6,25,.07,4.21-.13,8.44.12,12.65a10.49,10.49,0,0,0,.17,2.4c.28.35,2.29.5,2.76.59,1.87.37,3.75.5,5.64.7-.33-9.59-1.82-20.94,3.22-29.64s15.64-10.52,24.88-9.32Zm-84.72-95.37a18.92,18.92,0,0,1,2.37-3.41,11.1,11.1,0,0,0,1.51-2c.42-1,.41-.78-.18-1.66s-.54-.9-1.42-1.05-1.53.06-2.28-.08-2.85-.82-2.35-2a7.16,7.16,0,0,0,1.29-.63,4.66,4.66,0,0,0,.57-1.43,4.13,4.13,0,0,0,.16-3.49c-.78-2.06-4-2.71-6-2a3.53,3.53,0,0,0-2,2,12.54,12.54,0,0,1-.74,1.92c-.56.75-.59.67-1.74.52a26.46,26.46,0,0,1-4-1.17c-1.5-.45-2.49.4-3.82,1.09a17.5,17.5,0,0,1-7.35,1.8c-3,.19-5.71-.56-8.64-.78.72,3.51,2.65,6.38,4.18,9.58a4.42,4.42,0,0,1,.71,1.78c0,.61-.88,1.43-.79,1.93.2,1.08,2.55,2,3.44,2.29,2.52.88,5.39,2.59,8.18,2,1.54-.35,2.39-2.76,3.83-2.91,1.94-.22.46,2.25.09,3.1a19.78,19.78,0,0,0,8.84-.75,21.38,21.38,0,0,0,3.65-1.81,4.13,4.13,0,0,0,2.5-2.7Zm-48.6,51.57c-4.89,0-9.83-.75-14.74-.16-1.13.13-2.25.36-3.37.6-.81.17-3.35.29-3.89.88s-.53,3-.64,3.74a3.34,3.34,0,0,0,.79,3.34c3.24,4,6.62,7.95,9.82,12,3.06,3.92,5.57,8.28,8.67,12.15,1.74-4.88,1.92-10.75,2.45-15.88q.42-4.11.78-8.21c.24-2.61,1-6,.13-8.49ZM811.38,507a7.6,7.6,0,0,0,2,0c.75.25,1,0,.77-.84,0-.29,0-.57,0-.85.11-1.82.22-3.64.32-5.45s.2-3.33.29-5c.06-1.14.67-3.94.22-5-.3-.7-1-.55-1.92-.66s-1.69-.21-2.53-.35a9.17,9.17,0,0,0-3.33-.35c-1.09.22-1.9,1.22-2.76,1.85-1.37,1-2.76,1.95-4.14,2.93-2.51,1.78-5,3.6-7.47,5.41-1,.74-1.22.48-.74,1.57a16,16,0,0,0,1.4,2.07c.83,1.22,1.65,3.08,2.72,4.07,1.56,1.46,6,.6,8,.62,2.39,0,4.7.09,7.07-.09Zm6.19,0c2.07-.18,4.17-.06,6.23-.31,2.24-.28,4.47-.7,6.71-1s9-1.57,8.4-4.9c-.66-3.53-5.82-5.7-8.68-6.92a83,83,0,0,0-13.83-4.05,65.75,65.75,0,0,0-.74,9.72c-.08,1.73-.15,3.46-.17,5.2a5.5,5.5,0,0,0,0,1.67c.39.92.86.58,2.08.6Zm-6.83,1.42-13.23-.17c1.91,4.08,3.7,8.23,5.76,12.23s4.71,7.75,7.05,11.58a12.49,12.49,0,0,0,2-2.12,8.52,8.52,0,0,0,.56-3.13c.23-2.6.35-5.22.45-7.83.08-2.28.21-4.54.42-6.82,0-.5.62-3.08.32-3.51s-2.75-.22-3.33-.23Zm55.48-78.84c2.23,0,4.47,0,6.7.09,2,.06,4.66-.26,6.5.81,3.75,2.17-3.87,7.53-5.42,8.88,2.47.93,6.36-.8,8.79-1.59,3-1,6.08-1.61,9.14-2.36.77-.18,4.05-.53,4.48-1.11s-.46-4.09-.54-4.83a9.85,9.85,0,0,0-.28-2.43q.28-1.17-.81-.84H894c-1.86,0-3.72.05-5.58.09a154.58,154.58,0,0,0-19,1.25c-3,.43-5.93,1-8.86,1.49-2.48.45-2.07.86.24.89,1.8,0,3.59-.22,5.38-.33Zm183.89-44.63,1.16-1.3-2.77-.83c-1-.29-1.51-.23-1-1.33.56-1.37,3.07-1.49,4.27-1.53,4.14-.12,8.48,1.25,12.39,2.46a16.29,16.29,0,0,1,5,2.67,18.75,18.75,0,0,1,2.13,1.63c.63.64.89,1.46,1.51,2.11,1,1,2.34,1.59,2.83,3.11.56,1.73-.16,3.71-1,5.2a41,41,0,0,1-3.28,4c-.85,1.1-2.64,4.09.1,3.78,1.44-.17,3.35-2.61,4.4-3.58,1.5-1.38,3-2.8,4.58-4.09a9.67,9.67,0,0,1,4.91-2.5c2-.19,3,1.09,3.89,2.63s1,2.88,1.63,4.37a9.83,9.83,0,0,1,.85,1.9,33,33,0,0,1,.41,3.73,16.25,16.25,0,0,1,0,5.3c-.37,1.75-.49,3.62-.81,5.4-.35,2-.66,4.06-1,6.08-.3,1.71-1.38,4.14-.37,5.75,2.43,3.87,5.48-1.74,6.3-3.84,1.42-3.69,2.18-7.73,3.44-11.5a46.4,46.4,0,0,0,1.67-6.14c.33-1.73.21-3.84,1.18-5.37a3.29,3.29,0,0,1,3.51-1.7c1.8.48,2.46,3.1,3,4.69,1.34,4.19.78,7.95.16,12.2-.29,2-.57,3.94-1,5.88-.32,1.3-1.62,3.93.25,4.67,2.66,1,5.58-6.58,6.37-8.29,2-4.51,2.87-9,3.75-13.83.2-1.11.36-2.25.66-3.34s1-1.91,1.08-2.86-.55-1.63.11-2.56a2.7,2.7,0,0,1,2.41-.8c2.07,0,4,.94,5.95,1.62s4.41,2,6.35,1.61c-6-6.23-11.94-12.38-19.1-17.26a98.65,98.65,0,0,0-10.26-6.31,68.26,68.26,0,0,0-11.76-4.34c-2.13-.63-4.25-1.35-6.35-2.07-1.87-.64-3.76-.78-5.6-1.5-4-1.58-8.44-2.22-12.57-3.35-1.82-.5-3.66-.94-5.49-1.4s-4.62-1.33-6.58-1.28c-1.68.05-2.27,2-3.09,3.29a54.24,54.24,0,0,0-3.17,6,117.19,117.19,0,0,0-5.39,13c-.77,2.43-1.54,4.85-2.29,7.28-.66,2.1-2.27,5.12-1.88,7.29a143.51,143.51,0,0,0,8.68-14.75Zm-144.95,41.3-4.94.16c1.57,5.42,1.27,11.15,1.2,16.74a184,184,0,0,1,23.12-.69c-1.38-2.76-.79-6.3-.34-9.22a32.14,32.14,0,0,0,.39-5.09c0-1.62.48-3-1.23-3.5-1.36-.41-2.23.24-3.53.52a46.22,46.22,0,0,1-4.84.54,80.52,80.52,0,0,1-9.83.54Zm-44.32,9.94c5-1.31,10.21-.74,15.19-1.72-1.12-1-3.25-.46-4.76-.39-1.7.07-3.41.12-5.11.18s-6.28-.12-6.91,2l1.59-.06Zm181.79-74.1c-6.47.49-13.24.31-19.68,1.36-7.37,1.19-15,1.91-22.2,4.09s-14.17,3.62-21.1,6.15a161.16,161.16,0,0,0-19.57,8.43c-3.11,1.63-6.14,3.36-9.11,5.24s-6.07,3.33-8.88,5.27a50.72,50.72,0,0,0-6.85,5.47c-2.34,2.28-4.62,4.63-7,6.91-2,1.9-.8,6.63-.71,9.19.13,3.56.38,7.07.77,10.61a37.33,37.33,0,0,1,.16,10.34c-.25,1.41-1.08,3.84-.72,5.26.29,1.13,2.3,2,3.32,2.36,1.25.47,2.53.29,3.82.88a21.31,21.31,0,0,0,4.16,1.83,28.85,28.85,0,0,0,5.93.85,29.61,29.61,0,0,1,5.36,1c2.89.62,5.73.84,5.5,4.34-.26,4-1.91,7.49-2.91,11.31a8.31,8.31,0,0,0,3.38-.33,20.31,20.31,0,0,1,4.31-.85c3.21-.47,6.34-.59,9.57-.88a160.94,160.94,0,0,1,17.84-.23,64.21,64.21,0,0,1,9.19.85,62.09,62.09,0,0,1,9.08,1.81c2.47.8,5,1.36,7.54,2.08,1.13.32,2.49.59,3.56.95,1.56.52,2.38,1.59,4.18,1.59-.47-3.34-1.62-6.45-2.29-9.76a40.77,40.77,0,0,0-3.77-9.82c-.72-1.46-1.24-3-1.93-4.49a50.3,50.3,0,0,0-2.8-4.54c-1.91-3.14-4-6.16-5.83-9.33-1.63-2.76-3.51-5.41-5.31-8.08-2-2.94-4.74-5.17-7-7.87a42.61,42.61,0,0,0-2.92-3.25c-1-1-2.37-3.09-3.89-3.21a11.46,11.46,0,0,0-3.24.66c-1.55.47-3.19.77-4.79,1.18-1.76.45-3.48,1-5.24,1.47-.7.17-1.53.07-2.19.26s-1.26.67-2,.87c-3.76,1-7.5,2.18-11.29,3.1a111.3,111.3,0,0,0-11.63,3.1c-.72.26-1.53.89-2.07.46a2,2,0,0,1-.55-1.71c.38-1.71,3.13-2.3,4.46-3a71.35,71.35,0,0,1,10.9-4.25c1.88-.59,3.76-1.23,5.66-1.73a38.51,38.51,0,0,1,4.88-1.37,19.38,19.38,0,0,0,3.91-1.22c2.12-.71,4.3-1.29,6.45-1.9,3.68-1,7.57-1.44,11.33-2.12a132.29,132.29,0,0,1,26.59-2.08c4.47.11,9.15,0,13.55.83,1.06.19,3.3.19,4,1.15.38.52.16,1.28.25,1.84a7.53,7.53,0,0,0,1.1,2.24c1-4.61,2.14-9.12,3.42-13.66,1.15-4.12,2.23-8.3,3.75-12.35a77.94,77.94,0,0,1,5.93-12.73c.49-.8,1.7-2.08,1.82-3s-1.19-1.68-2.09-1.79a42.32,42.32,0,0,0-6.17.15Zm42.59,66.65c.74-6.41,2.75-13.09,1.76-19.55-.42-2.73-.74-5.34-2.08-7.82-.67-1.25-.93-2.17-2.26-1.45s-2.59,2.54-3.71,3.59a38,38,0,0,1-6.66,5.34c-1.93,1.12-5.75,2.15-7.16-.34s.53-5.64,1.87-7.57c1.53-2.2,4.41-4.23,2.84-7-.67-1.19-1.65-1.52-2.68-2.3s-1.64-1.57-2.53-2.26c-2.59-2-5.44-2.9-8.44-4.07-1.38-.54-1.56-1-2.38.15a30.84,30.84,0,0,0-2,4.53,70.83,70.83,0,0,1-4.34,8.22c-1.68,2.68-3.18,5.49-4.77,8.23a34.12,34.12,0,0,1-1.87,3,16,16,0,0,0-1.17,1.57c-.46.86-.27,1.64-.57,2.5-1.26,3.68-3-1.5-3.3-2.71a24.74,24.74,0,0,0-1.87-3.75c-.49-1.06-.81-2.64-2-3.15-1-.42-2.26.12-3.26.16-1.85.08-3.72-.09-5.58,0s-3.47.23-5.21.31-3.47-.23-5.19-.07c-3.08.29-6.23.2-9.31.61-3.61.49-7.18,1-10.8,1.41.82,1.6,2.55,2.31,3.91,3.46s2.18,2.21,3.4,3.19,2,2.45,3,3.64a36.08,36.08,0,0,1,2.82,3.44c4.23,6.28,8.6,12.33,12.07,19.09a72.89,72.89,0,0,1,4.61,10.76,93.52,93.52,0,0,1,2.6,12.2,13.76,13.76,0,0,1,.09,5.75c-.12.48-.24,1-.37,1.44-.38.57-.25.95.4,1.13.38.56.9.78.92,1.54a1.88,1.88,0,0,1-.81,1.56c-1,.62-1-.23-2-.06l-1.12.59c-.19-.3-.39-.6-.59-.89-.63-.61-1.13-.56-2-.72a43.8,43.8,0,0,1-1.5,13.85c-.54,2.26-1.44,4.47-1.91,6.74-.53,2.53.53,3.7,2.18,5.41a7.74,7.74,0,0,0-1.52.77c-.57.52-.43.59-.44,1.42a27,27,0,0,1-.58,4.47,45.06,45.06,0,0,1-1.89,8.21,67.1,67.1,0,0,1-7.51,13.86,50.14,50.14,0,0,1-5.25,7c-2,2-4,4-6,6.07-4,4-8.28,6.71-13,9.67a37.61,37.61,0,0,0-5.46,3.92,30,30,0,0,1-5.77,3.59,24.73,24.73,0,0,1-2.44,1.57,12,12,0,0,0-2.24,1,41,41,0,0,1-5.85,3.13c-2.47,1.1-4.9,2.39-7.43,3.32-1.15.42-2.24.89-3.36,1.39s-2.51.88-3.75,1.46c-1,.49-2.11.77-3.18,1.16-.87.32-1.56.86-2.45,1.19-1.84.71-3.52,1.08-5.31,1.91-2.39,1.1-5.2,1.6-7.71,2.38-2.8.88-5.7,1.75-8.57,2.36a29.45,29.45,0,0,0-3.44,1c-.77.26-1.65.4-2.5.65-2.36.68-4.71,1.34-7.07,1.92-4.63,1.13-9.35,2.49-13.83,4a73.47,73.47,0,0,0-7,2.85c-2.55,1.18-5.3,1.85-7.86,3q-7.43,3.39-14.79,7c-2.57,1.25-5.11,2.54-7.62,3.9-.91.5-1.91.7-2.81,1.18-1.19.63-2.16,1.57-3.38,2.2-4.67,2.42-9.44,4.7-13.75,7.78a52.47,52.47,0,0,0-6.63,5.24c-.64.65-1.76,1.66-1.89,2.62-.18,1.41,0,.11.47,1,.68.09.83.35.45.79a.87.87,0,0,1-.66.31c-.86.16-2.45-.77-3.13-1.16a7.36,7.36,0,0,1-2.57-2.63c-1.63-2.42-3.23-4.86-4.91-7.25-1.52-2.14-3-4.5-4.73-6.48-1.17-1.34-1.27-.76-2.6,0-1,.54-2.14.77-3.17,1.27a94.18,94.18,0,0,1-12.22,4.7,13.09,13.09,0,0,0-2.21,1.23,25.44,25.44,0,0,1-3.41,1.18q-4.51,1.57-9,3.25c-2.31.86-4.52,1.53-6.34,3.14-.73.64-1.6,1.1-2.35,1.75a13.23,13.23,0,0,1-3.14,2.4l-.66.51-1.33-1-1.32-.94c-1.11-.79-2.2-1.59-3.3-2.38-2.48-1.82-5-3.61-7.29-5.65-4.1-3.61-8.36-7-12.65-10.44-4.51-3.56-8.9-7.28-13.56-10.64-4.22-3-8.85-5.62-12.94-8.82-2.06-1.61-4.12-3.24-6.22-4.8a20.69,20.69,0,0,1-1.85-1.28c0-.22.55-.78.72-1,.81-.85,1.7-1.61,2.5-2.48,3.75-4,8.57-3.82,13.67-3.94,2.31-.06,4.8,1,7,1.79,2.67.92,5.24,2.26,7.82,3.41,5.31,2.39,10.8,4.44,16.17,6.66a54.63,54.63,0,0,0,6.37,1.91c2.18.62,4.44.09,6.78.16,1.22,0,2.37.12,3.59.07.73,0,1.57-.16,2.28-.14a16.21,16.21,0,0,0,1.72.22c2.35-.24,4.83-.58,7.25-.85s4.87-.39,7.25-.84a25.34,25.34,0,0,0,3.52-.93c1-.34,2.82-.71,3.64-1.41s.42-.64,0-1.69a11.36,11.36,0,0,0-.55-1.43c-.63-1.08-1.25-1.42-.86-2.75.69-2.35,3-3.82,4.92-4.95,4.38-2.56,8.41-5.86,13-8,9.5-4.44,18.18-10.26,27.45-15.15,10.2-5.38,19.86-11.72,30.19-16.87,9.61-4.79,19.19-9.6,28.88-14.24C903.4,515,908.75,513,913.06,510c-2.36-.32-4.73-.73-7.1-1-1.1-.11-2.21,0-3.3-.23s-2.38-.72-3.6-.94c-2.09-.38-4-1.12-6.07-1.42s-4.45-1-6.71-1.22a33.89,33.89,0,0,1-13.11-4.5c-1-.56-1.87-.26-2.85-.64-.54-.21-1.11-1-1.71-1.48-1.66-1.23-3.09-2.67-4.67-4-3.45,7.49-10.1,12.52-16.45,17.49-3.21,2.52-6.69,4.64-9.94,7.11a65.42,65.42,0,0,1-7.49,5.13c-2.57,1.46-5,3.43-7.46,5.18-1.67,1.19-3.61,2.08-5.38,3.1-1.45.84-4.27,2.09-4.68,3.64-.33,1.26.27,2.78-1.66,2.17-1.73-.54-3-2.49-4-3.86-2.57-3.54-5-7.21-7.34-10.88-1.34,2.53-3.61,4.33-5.72,6.19-1.28,1.13-2.6,2.18-4,3.19l-2,1.45a4.44,4.44,0,0,0-1,.76c-.41.64-.16.35-.11,1.13.08,1.22.47,2.19-.23,3.35s-2.09,1.54-3.09,2.28a58.63,58.63,0,0,1-7.52,5,15.14,15.14,0,0,0-1.72,1c-.94.63-.77.87-1.69.24a41.93,41.93,0,0,1-4-3.8q-4.08-3.74-8.26-7.35c-5.32-4.59-10.79-8.95-16-13.62-5-4.44-10.34-8.28-15.49-12.5-1.41-1.16-2.81-2.34-4.2-3.52s-3.27-2.22-4.18-3.56c-1.32-1.94,4-4.5,5.58-4.87a22.38,22.38,0,0,1,9,.38c2.88.61,5.79,2.59,8.47,3.84,3,1.4,6.09,2.62,9.13,3.94a30.33,30.33,0,0,1,4.05,1.86c1.34.84,2.52,1.79,3.94,2.5a47,47,0,0,0,5.06,2.18,13.65,13.65,0,0,0,2.45.67c1.16.17,1-.37,2-.66s1,.43,1.76.63a2.17,2.17,0,0,0,1.82-.36c1.36-.81,2.57-2,3.93-2.8s2.65-1.53,3.83-2.43c.53-.4.92-1,1.44-1.36.84-.66,1.16-.39,2.13-.83.79-.37,1.51-1,2.27-1.5.47-.29,1.6-.63,1.9-1.09.81-1.21-.53-2.07-1.73-1.73-.17-1-1.07-3.55-.65-4.53s1.29-.69,2.08-1.15c3-1.69,5.16-4.81,7.93-6.81s4.93-4.15,7.52-6.08c2.22-1.64,4.64-3.25,6.67-5,2.39-2.1,5.44-3.73,8-5.6s5.18-4.1,7.83-6.05,5.07-3.86,7.69-5.65c2.36-1.61,4.82-3.07,7.13-4.7a20.35,20.35,0,0,1,4.08-2.26c1.43-.58,2.69-1.26,4.08-1.88a33.18,33.18,0,0,1,9.39-2.39,82.69,82.69,0,0,1,10-.64c1.78,0,3.5.38,5.26.51s3.36.55,5,.52a11.45,11.45,0,0,1,2.07-.21c.59.09,1.1.45,1.73.53,1.41.15,2.82,0,4.24.23,3.27.46,6.53,1.1,9.81,1.47,3.48.4,6.94.51,10.41,1.15s6.79,1.27,10.15,2c7.15,1.52,14.38,3,21.41,5.22a46.84,46.84,0,0,1,4.87,1.71,23.56,23.56,0,0,0,2.3,1c1.14.36,1.37.5,2-.45a40,40,0,0,0,2.39-5.63,35.69,35.69,0,0,0,2.12-5.43,24.33,24.33,0,0,0-4.07.17c-1.55,0-3.09,0-4.64-.05-3.13-.05-5.57-1-8.52-2-2.49-.85-5.81-1.36-7.69-3.26a2.66,2.66,0,0,0-2.88-1c-1.55.16-3.09.45-4.65.49-5.9.12-11.78,1.07-17.7,1.2-1.6,0-5.62.74-5.32-2,.06-.57.5-1.05.59-1.63a6.13,6.13,0,0,0-.14-1.86c-.21-1.45-.44-2.89-.65-4.33-5.42,1.66-10.9,3-16.42,4.3-2.29.54-6,1.8-8.32,1.05s-.91-3.91-.18-5.44c-4.54,1-9.39,2.6-14,2.93-1.41.1-2.78.39-3.09-1.31-.24-1.35.76-3,1.27-4.18-3.54-.36-7.21-.38-6.48-4.91.66-4.16,4.14-4.95,7.83-5.66,4.56-.88,9.21-1.14,13.8-1.84,4-.61,8.35-1.29,12.41-.9,2.16.2,4.32.27,6.47.49a16.57,16.57,0,0,1,3,.57c.91.27,2.16,1.08,3.09,1.1,1.41,0,3.12-1.83,4.64-2.25a27.16,27.16,0,0,1,5.82-.7c2.2-.13,4.39-.18,6.58-.33.5,0,2.38.11,2.78-.17.58-.42.23-2.61.2-3.51s.15-2.38-.42-2.71-2.12.08-2.65.16a31.34,31.34,0,0,1-6.49.14c-1,0-2,.2-3,.06s-2.15-.53-3.22-.75a17.28,17.28,0,0,1-6.42-2.36c-1.74-1.17-3.81-2-4.77-4-.7-1.48-1-4.31,1.16-4.7a25.75,25.75,0,0,1-3.11-6.86,8.61,8.61,0,0,0-.42-1.47c-.71-1.36,0-.16-1.08-.71a7.51,7.51,0,0,1-2.56-1.9,8.78,8.78,0,0,1-1.92-5.23,36.86,36.86,0,0,1-.15-8.13c.72-4.48,4-7.8,7.41-10.47,1.82-1.45,4.21-2,6.34-2.84a23.33,23.33,0,0,1,6.52-1.89c1.95-.15,3.86-.77,5.81-1,2.69-.32,5.37-.15,8.06-.22,1.24,0,2.48-.19,3.71-.31a10.47,10.47,0,0,0,2.52-.24c1-.44.47.5.86-.88a58.33,58.33,0,0,1,2.47-7.62,28.2,28.2,0,0,1,3.91-6.66,44.48,44.48,0,0,1,5.3-4.87,32,32,0,0,1,4.35-3.22c.86-.55,1.82-.84,2.67-1.33a14.64,14.64,0,0,1,3.15-1.41,24.23,24.23,0,0,1,7.7-1.52c2.87.09,5.77-.55,8.56.34,5.18,1.64,7.66,7.31,7.5,12.49,1.79-.42,3.35-1.26,5.24-1.3a26,26,0,0,1,5.5.47,14,14,0,0,1,8.62,5.37,9.93,9.93,0,0,1,.89,9.22,16.52,16.52,0,0,1-2.42,3.92c-.7.88-2.24,1.85-2.33,3.05a246.25,246.25,0,0,1,39-7.87c6.73-.81,13.45-.27,20.18-.7,2.88-.18,6,.17,9,.22a4.26,4.26,0,0,0,3.15-.94c.93-.81,1.68-1.81,2.73-.61.27.3.32,1,.69,1.27s1.74.11,2.27.15a42.81,42.81,0,0,1,5.52.86c3.35.72,6.69,1.44,10,2.33,6.31,1.7,12.53,3.35,18.75,5.35a102.8,102.8,0,0,1,18.56,7.79,75.32,75.32,0,0,1,8.23,5.47,27.35,27.35,0,0,1,3.32,3c1.12,1.15,2.49,1.94,3.6,3.1,2.4,2.53,4.79,5.22,7,7.95,1.13,1.43,2.17,2.93,3.18,4.45.71,1.07,2.58,3,2.13,4.39a1.59,1.59,0,0,1-1.81,1c-.25-.06-.45-.38-.66-.42-.72-.11-.06-.35-.91,0-1.68.65-2.23,2-4.34,1.67-3.6-.57-7-2.32-10.23-3.85-1,3.57-1.17,7.28-2,10.89a45.42,45.42,0,0,1-3.88,10.11,23.65,23.65,0,0,1-5.82,7.83c-1.93,1.53-6.66,3.4-8,.08-.58-1.41.34-3.58.61-5,.36-1.94.75-3.88,1-5.83.19-1.59.29-3.19.46-4.78.15-1.36.56-4.3-.2-5.52-.45-.73-.5,0-.78.71s-.62,1.75-.88,2.65c-.53,1.93-1,3.86-1.52,5.8a38,38,0,0,1-3.73,9.91c-1.63,2.75-3.91,5.75-7.32,6.16a6.86,6.86,0,0,1-4.88-1.65c-1.35-1.23-.91-3.21-.88-4.85Z" transform="translate(-701)"/><path class="cls-1" d="M1005.6,569.1c1.88-.35,3.47-1.82,5-2.92,2-1.41,3.84-2.95,5.75-4.43a83.55,83.55,0,0,0,10-9.19,55.47,55.47,0,0,0,13-23.87c1.11-4.42,2.48-9.61,1.94-14.2-.19-1.6-.5-1.9-2.06-2.1a9.16,9.16,0,0,0-3.13,0c-1.66.69-2.59,3.74-3.1,5.28-1.5,4.52-2.41,9.22-3.77,13.78a83.46,83.46,0,0,1-5.54,13.17c-4.65,9.29-11,17-18.15,24.52M1043.41,518c-1.29,12.7-5,24.77-13,34.92a77.28,77.28,0,0,1-13.16,12.78,98.6,98.6,0,0,1-15.77,10.48c-1.5.77-3,1.54-4.54,2.27-.84.41-3,1.92-3.94,1.66-.78-.2-1-.81-1.08-1.59-.25-1.76.9-2.62,2.06-3.73,4.69-4.46,9.38-8.94,13.77-13.69a85.56,85.56,0,0,0,19-32.91c1.14-3.77,2.17-7.57,3.41-11.31.75-2.28,1.82-6.33,4.24-7.44,1.29-.6,2.79,0,4.14-.33s2.13-1,3.2.17c1.87,2.09,1.9,6.13,1.74,8.72" transform="translate(-701)"/><path class="cls-1" d="M704.14,587.05c-1,.33-1,.66-1.42-.32a3.54,3.54,0,0,1-.09-1.68,10.7,10.7,0,0,1,1.34-3.42c4.93,4.17,10,7.94,15.34,11.64,5.66,4,11.06,8.34,16.4,12.71,4.79,3.91,9.64,7.71,14.37,11.67,2.29,1.91,4.9,3.4,7.07,5.36,1.75,1.59,4.68,2.33,6.17,4.19-2.41,1.4-5.63,2.51-8.26,1.24a48,48,0,0,1-7.72-5.1c-1.33-1-2.72-1.85-4.07-2.79-1.19-.83-2-2-3.22-2.8-2.53-1.63-5.13-3.43-7.52-5.29S727.34,609,725,607s-5.16-3.47-7.71-5.36c-5.39-4-10.12-8.52-13.11-14.59" transform="translate(-701)"/><path class="cls-1" d="M853.63,379.43c-.08.37-.15.73-.22,1.09,0,0,3.38-6.24,3.93-7a47.45,47.45,0,0,1,6.59-6.78c4.92-4.5,10.66-8.1,15.48-12.68,1.59-1.5,4.43-3.78,3.84-6.37s-5.79-2.11-7.58-1.39c-2.81,1.12-5.11,3.53-7.22,5.62a68.28,68.28,0,0,0-6.58,7.13,41.05,41.05,0,0,0-5.43,9.09,59.86,59.86,0,0,0-2.81,11.28m.92,11.27c-2.22.66.55,1.15-.33,2.32s-2.52-2.73-2.74-3.48c-1.35-4.47-.66-9.87.17-14.38.42-2.27.7-4.58,1.25-6.83a28.22,28.22,0,0,1,2.73-6.25,48.13,48.13,0,0,1,8-10.89c3.14-3.24,6.63-6.47,10.75-8.43,3.4-1.62,8.74-.4,10.27,3.26s-.67,7.75-3.29,10.33a113.35,113.35,0,0,1-11,9.59c-2,1.48-3.62,3.29-5.53,4.84a26.68,26.68,0,0,0-5.31,5.46,33.78,33.78,0,0,0-4,6.54c-1.06,2.6-1,5.16-1.08,7.92" transform="translate(-701)"/><path class="cls-1" d="M764.12,549.75c-5-3.34-10.09-6.27-14.46-10.5s-8.07-8.86-12.88-12.49c-2.4-1.82-4.88-3.52-7.24-5.39s-4.81-3.31-6.83-5.33c-2.69-2.69-7.72-7.69-4.19-11.6,4.25,5.19,10.12,9.31,15.47,13.28,5.64,4.18,10.81,9,16.15,13.59,5.15,4.38,10.28,8.8,15.3,13.29,1.32,1.18,2.59,2.42,3.92,3.58.17.15,1.55,1.05,1.55,1.29,0,.56-1.1.9-1.48,1-.62.24-2.27.84-3,.62-.36-.11-.36-.41-.62-.59a5.22,5.22,0,0,0-.52-.8h-1.21" transform="translate(-701)"/><path class="cls-1" d="M1063.73,496.59c-3.61-.14-9.12-.23-9,4.72.07,2.45,1.37,4.26,2.43,6.37a20.93,20.93,0,0,1,2.24,7c1.23,10-2.54,19.7-6,28.88a46.29,46.29,0,0,0,15.17-22.19,38.79,38.79,0,0,0,1.56-14.05,17.42,17.42,0,0,0-1.92-6.16,10.94,10.94,0,0,0-1.73-2.93,10.22,10.22,0,0,0-2.82-1.61m-13.3,52.62c-2.29-3.88,1.47-9.49,2.72-13.22a80.4,80.4,0,0,0,3.56-13.78,20.33,20.33,0,0,0-2.29-13.07c-2-3.89-3.12-9.06-.81-13.12.93-1.63,2.27-1.82,3.88-2.45,2-.79,2.52-2.14,4.92-1.9,4.28.44,6.22,4.54,7.77,8,3.61,8.12,2.47,18.53-.81,26.6-1.88,4.65-4,9.46-7.18,13.4a38.29,38.29,0,0,1-5.23,5.19c-2,1.74-3.85,3.83-6.53,4.33" transform="translate(-701)"/><path class="cls-1" d="M807.41,405.85c-5.67,1.06-10.86,3.55-11.85,9.89-.89,5.76,3,11.15,7.76,13.91,5.19,3,11.73,3.56,17,.39a11.12,11.12,0,0,0,3.59-15.56c-3.65-6-9.86-7.88-16.47-8.63m3.66-2.72a19.35,19.35,0,0,1,15.09,12.42c2.25,6.68,0,14-6.22,17.53-12.6,7.2-29.16-5.28-26-19.35a13.91,13.91,0,0,1,6-8.38c3.29-2.27,7.24-2.29,11.08-2.22" transform="translate(-701)"/><path class="cls-1" d="M1051.24,338.67l-24.19-11.32-1.14,11a15,15,0,0,0-.34,3.32c.15,1.05-.2.94,1.16.81,1.75-.17,3.51-.58,5.24-.87,3.12-.51,6.42-.63,9.47-1.4a45.28,45.28,0,0,1,4.63-.67c1.73-.25,3.42-.74,5.17-.89m-27.52,6.75c0-4.14.56-8.22,1-12.34.39-3.7.57-7.23,1.82-10.75,1.11,2.07,4.23,2.93,6.15,4,2.66,1.49,5.49,2.6,8.2,4s5.24,2.87,7.91,4.2c1.35.68,2.73,1.31,4.08,2,.84.43,2.85,1.12,3.37,1.9,1.58,2.37-3.93,2.52-5,2.72-3.19.58-6.42.89-9.61,1.48-3,.56-6,1.08-8.93,1.58s-6,1.29-9,1.25" transform="translate(-701)"/><path class="cls-1" d="M772.34,444.72c3.2-.29,6.38-.72,9.58-1a22.75,22.75,0,0,0,8.48-1.89c-3.76-1.19-7.52-2.31-11.31-3.39-1.88-.53-3.75-1.09-5.64-1.59-1.46-.39-2.73-.62-3.28-2.22-.63-1.87,1.19-1.57,2.32-1.08,1.56.67,3.26,1.1,4.88,1.66,3.61,1.26,7.24,2.42,10.88,3.57,1.14.35,7.71,1.7,5.31,3.87-1,.93-3.31,1.42-4.56,2.08a17.35,17.35,0,0,1-5.12,1.49c-3.7.67-7.54.9-11.29,1.47l-5.74.88c-1.12.18-1.55.15-1.83-1.1a5.89,5.89,0,0,1,.31-2.69c.54-2.22,1.15-4.44,1.75-6.65.23-.84.66-4.56,1.42-4.95,1.72-.9.33,4.23.2,4.86-.51,2.37-1.11,4.73-1.4,7.14,1.68-.13,3.36-.27,5-.46" transform="translate(-701)"/><path class="cls-1" d="M817.37,464.25c.62,1.6-.44,1.94-1.72,2.47-1.67.7-3.31,1.43-5,2-3.57,1.31-7.16,2.52-10.64,4-6.64,2.91-13.37,5.69-19.91,8.8-1.63.78-3.26,1.55-4.9,2.29s-3.64,2.08-5.45,2.51c-1.58.37-1.73-.75-.79-1.77a21.06,21.06,0,0,1,4.61-3.19,122,122,0,0,1,19.9-9.27c7.88-2.93,15.78-5.73,23.9-7.93" transform="translate(-701)"/><path class="cls-1" d="M835.77,374.21c-.16-4.84.55-9.68.22-14.51-6.7,5.79-3.55,14.92.18,21.35Zm2.88-.24a61.93,61.93,0,0,1-.15,7.08c-.27,2.46.87,3.75,2.36,5.58-1.3,1.29-4.2-1.78-5-2.69a29,29,0,0,1-3.94-6.54c-2.3-4.74-3.86-9.8-1.9-14.95.72-1.91,1.61-4.5,3.48-5.59,2-1.2,3.58.55,4.4,2.33,2,4.37.36,10.12.75,14.78Z" transform="translate(-701)"/><path class="cls-1" d="M905.83,615.32c3,.28,6.06.56,9.12.79q-.71-6.3-1.42-12.6l-5.33,1.16a12.33,12.33,0,0,0-2.87.63l-.83.18c0,.55,0,1.09,0,1.63,0,1.61-.11,3.22-.19,4.83a9.61,9.61,0,0,0-.14,2.33q-.43,1,.54.87l1.16.18m-2.15,3c-2.38-1.22-1.68-4.86-1.64-7.18,0-1.48.14-2.94.2-4.42a10.65,10.65,0,0,1,.19-3.24c.64-1.74,3.67-1.65,5.23-1.51a23,23,0,0,0,3.32,0,7.85,7.85,0,0,0,1.81-.08,9.62,9.62,0,0,0,1.25-.84c2.1.11,2.06,5.14,2.18,6.42.3,3.15.56,6.3.8,9.46.06.83.36,1.78-.44,2.24s-2.61,0-3.4-.06c-3.19-.14-6.35-.67-9.5-.79" transform="translate(-701)"/><path class="cls-1" d="M1055.73,433.41c1.37,1.27.69,2.54.22,4.1-.29.93-1.83,4-1.43,4.86s2.71,1.3,3.67,1.63a37.21,37.21,0,0,1,4.91,2c.7.36,3.22,1.19,3.69,1.85a1,1,0,0,1,.15,1.14c-.37.84-.87.39-1.75.2a52.2,52.2,0,0,1-11.63-3.78c-1.07,2.39-2,4.83-2.88,7.28-.27.72-.53,2.36-1.51,2.46-1.19.13-1.18-1.46-1.09-2.32a18.08,18.08,0,0,1,1.2-3.76c.34-1,1.5-3,1.37-4-.08-.69-.51-.65-1.26-.93l-2.13-.8c-1.14-.44-2.27-.87-3.38-1.38-.6-.28-1.88-.62-2.31-1.19-.25-.33-.52-1.51-.2-1.83.77-.76,5.78,1.37,6.81,1.66.68.2,1.37.35,2,.6.25.1.55.48.82.5,1.16.07,1.26-.82,1.63-1.77a37.12,37.12,0,0,1,3.07-6.46" transform="translate(-701)"/><path class="cls-1" d="M766.66,473.85c-.6-1.52,6-3.26,7.2-3.76,3-1.2,6.17-1.91,9.26-2.82s6-1.86,9-2.9c.92-.33,7.58-3.46,7.92-3,1.13,1.58-12.82,6.3-14.18,6.77-6.32,2.18-12.83,3.83-19.24,5.7" transform="translate(-701)"/><path class="cls-1" d="M1049.89,359.17c-1.7,0-4.16.44-5.71-.27l5.71.27" transform="translate(-701)"/><path class="cls-1" d="M811.07,403.13l-3.77-.06a6.22,6.22,0,0,1,3.77.06" transform="translate(-701)"/><path class="cls-1" d="M1007.68,404.64l2.67,0-2.67,0" transform="translate(-701)"/><path class="cls-1" d="M1085.22,428.7l-.06,2.85.06-2.85" transform="translate(-701)"/><path class="cls-1" d="M907.66,602l-2.83.17,2.83-.17" transform="translate(-701)"/><path class="cls-1" d="M915.32,420.56l-2.88.19,2.88-.19" transform="translate(-701)"/><path class="cls-1" d="M1014.9,404.42l2,0-2,0" transform="translate(-701)"/><path class="cls-1" d="M877.94,421.93l-2.53.2,2.53-.2" transform="translate(-701)"/><path class="cls-1" d="M916,362.14l-2.53,0a3,3,0,0,1,2.53,0" transform="translate(-701)"/><path class="cls-1" d="M760,506.23c-.7-.05-1.27.28-1.66-.39.65-.5,1,.09,1.66.39" transform="translate(-701)"/><path class="cls-1" d="M891,451.5l-2.19-.28Z" transform="translate(-701)"/><path class="cls-1" d="M903.68,618.32l1.45.06-1.45-.06" transform="translate(-701)"/><path class="cls-1" d="M1019.54,360.16l-2.27.17,2.27-.17" transform="translate(-701)"/><path class="cls-1" d="M777.38,586.08l-2.18,0,2.18,0" transform="translate(-701)"/><path class="cls-1" d="M719.26,572.48l-2.19,0,2.19,0" transform="translate(-701)"/><path class="cls-1" d="M906.16,421l-2.23.19,2.23-.19" transform="translate(-701)"/><path class="cls-1" d="M885.41,422l-2.19-.28c.73.15,1.54-.4,2.19.28" transform="translate(-701)"/><path class="cls-1" d="M951.24,452.18a6.36,6.36,0,0,1,1.57-.12c-.07.27-1.39.12-1.57.12" transform="translate(-701)"/><path class="cls-1" d="M904.14,508.92l1.46.05-1.46-.05" transform="translate(-701)"/><path class="cls-1" d="M860.59,450l-2.15.18,2.15-.18" transform="translate(-701)"/><path class="cls-1" d="M780.44,446.49l1.17,0-1.17,0" transform="translate(-701)"/><path class="cls-1" d="M886,450.82l-1.84-.06,1.84.06" transform="translate(-701)"/><path class="cls-1" d="M772.34,444.72l-1.86.21,1.86-.21" transform="translate(-701)"/><path class="cls-1" d="M857.35,440.55l1.14.07-1.14-.07" transform="translate(-701)"/><path class="cls-1" d="M885.7,505.25l1.16-.07-1.16.07" transform="translate(-701)"/><path class="cls-1" d="M916.05,455.26l-1.87-.25,1.87.25" transform="translate(-701)"/><path class="cls-1" d="M764.12,549.75h0" transform="translate(-701)"/><path class="cls-1" d="M731.49,499l-1.93-.22,1.93.22" transform="translate(-701)"/><path class="cls-1" d="M716.77,572.53l-1.91.2,1.91-.2" transform="translate(-701)"/><path class="cls-1" d="M1064.87,405.27c0,.55-.11,1.1-.17,1.65.06-.55.12-1.1.17-1.65" transform="translate(-701)"/><path class="cls-1" d="M781.18,585.58l-1.92.19,1.92-.19" transform="translate(-701)"/><path class="cls-1" d="M774.9,586.13a1.52,1.52,0,0,1-1.93,0l1.93,0" transform="translate(-701)"/><path class="cls-1" d="M762.65,586.51l-1.88,0,1.88,0" transform="translate(-701)"/><path class="cls-1" d="M838.65,374c0-.56-.09-1.11-.14-1.67,0,.56.09,1.12.14,1.67" transform="translate(-701)"/><path class="cls-1" d="M907.22,362.44l-1.89.21,1.89-.21" transform="translate(-701)"/><path class="cls-1" d="M909.45,362.17l-1.92.19,1.92-.19" transform="translate(-701)"/><path class="cls-1" d="M809.16,435h0" transform="translate(-701)"/><path class="cls-1" d="M866.22,429.54a16.33,16.33,0,0,1,6.27.08Z" transform="translate(-701)"/><path class="cls-1" d="M922.23,406.76c.45-1.13.56-1.56,1.63-2.13-.45,1.1-.53,1.69-1.63,2.13" transform="translate(-701)"/><path class="cls-1" d="M971.72,519.79c0,1.18.06,2.36.08,3.54,0-1.18,0-2.36-.08-3.54" transform="translate(-701)"/><path class="cls-1" d="M1049.51,361.89l-2.83,0,2.83,0" transform="translate(-701)"/><path class="cls-1" d="M921.33,540.13l.06,3-.06-3" transform="translate(-701)"/><path class="cls-1" d="M805.94,507.11l2.87.06-2.87-.06" transform="translate(-701)"/><path class="cls-1" d="M887.72,457.6h0" transform="translate(-701)"/><path class="cls-1" d="M886.25,426.29l-1.41-.07,1.41.07" transform="translate(-701)"/><path class="cls-1" d="M817.57,507l2.24-.19-2.24.19" transform="translate(-701)"/><path class="cls-1" d="M801.31,507.09h0" transform="translate(-701)"/><path class="cls-1" d="M809.11,507.17l2.27-.17-2.27.17" transform="translate(-701)"/><path class="cls-1" d="M811.86,508.4l-1.13,0,1.13,0" transform="translate(-701)"/><path class="cls-1" d="M971.73,493.54c.06-.56.13-1.11.19-1.66-.06.55-.13,1.11-.19,1.66" transform="translate(-701)"/><path class="cls-1" d="M859.42,436l1.42.14-1.59.06a.2.2,0,0,1,.17-.2" transform="translate(-701)"/><path class="cls-1" d="M980.2,530.89c0-.51,0-1-.07-1.52,0,.51,0,1,.07,1.52" transform="translate(-701)"/><path class="cls-1" d="M868,434.19h0" transform="translate(-701)"/><path class="cls-1" d="M1006.68,499.76l1.9.24-1.9-.24" transform="translate(-701)"/><path class="cls-1" d="M875.26,456.2h0" transform="translate(-701)"/><path class="cls-1" d="M853.63,379.43c.4.23.18,1.19-.22,1.09.07-.36.14-.72.22-1.09" transform="translate(-701)"/><path class="cls-1" d="M1063.73,496.59l-1.12,0,1.12,0" transform="translate(-701)"/><path class="cls-1" d="M835.77,374.21c0-.85,0-1.7-.08-2.54,0,.85.06,1.69.08,2.54" transform="translate(-701)"/><path class="cls-1" d="M904.09,615l1.74.28-1.74-.28" transform="translate(-701)"/><path class="cls-1" d="M903.06,396.57c-2.06.4-4.16.59-6.17,1.19-.5.15-2.15,1.08-2.75.82-.9-.4-.43-1.37,0-1.89a5.69,5.69,0,0,1,4.56-2.1c1.68,0,4,0,4.4,2" transform="translate(-701)"/><path class="cls-1" d="M897.32,400.25c2.23,1.6,3.94,2.4,4.18-1.14,2.44.36,1.29,4.29-.56,4.56-2,.3-3.33-1.73-3.62-3.42" transform="translate(-701)"/></g><g id="coffe"><path class="cls-3" d="M1176.25,448.11c2.69-1.14,8.67-5.93,11.47-6.76,6.22-1.83,32.45-2.64,33.34-2.82,1.34-.27,9.78-.49,14.71-.7,11.58-.51,54.63-10.13,66-12.54.63,3.77,8.52,21.42,6.32,22.63-7.25,4-19.67,8.24-27.6,10.53a124.91,124.91,0,0,1-19.7,3.93c-7.52.91-12.86,2.42-20.37,3.39s-.58,9.9,2.67,12.12c3.65,2.49,9.65,4.58,13.43,6.87-9.4,9.7-18.13,22-22,35.13-.93,3.15-4,5.61-7.76,3.85-2-.91-20.42-7.23-23.37-8.56-19.7-8.84-51.82-40.91-37.22-64.28C1168.1,452.35,1173.94,449.09,1176.25,448.11Z" transform="translate(-701)"/><path class="cls-1" d="M1214.66,316.29c1.56.18,6.17-2.1,4.39-4.08s-4.37,3-4.39,4.08M1132,312c.42,0,.69-2.23.11-2.64-1.83-1.29-2.67,2-2.89,2.9-.29,1.12-1.07,4.27,1.54,3.89,1.48-.22,1.2-3.28,1.24-4.15m116.21,34c-.45,2,2.77,6.54,4.71,4.56,1.63-1.65-3.83-8.46-4.71-4.56M1116.4,273.43c.56,3.17,7.06.31,7.71-1.81,1.32-4.33-7.19-1.14-7.71,1.81m45,22.2c2.69.32,6.86-2.36,9.68-3.11,1.9-.5,6.82-.58,7.72-2.41.78-1.6-7.94.41-8.69.59-3.43.84-6.59,1.95-8.71,4.93m203.95,16.63a12,12,0,0,1,7.92-1.14c1.35.31,4,1.72,4.58-.6.94-3.78-11.95-1.53-14-1.15l1.47,2.89m-161.72,122c-1-2.89-3.53-4.94-5.19-7.56,0,3.77-2.33,6.63-4.19,9.69l9.38-2.13M1462.22,543.2c1.42-2.69,2.85-5.37,4.42-8,1.75-2.93,2.36-3.09.12-5.84l-9.19,11.27a20.07,20.07,0,0,0,4.65,2.56M1273.6,289.87c-2.27-3.91-16-6.88-15.79.79.09,2.67,4,.64,6.27.47s8.21.94,9.52-1.26m-9.91,46.88c-.18-.92-.28-4.12-1.29-4.57s-5.69,1.95-6.56,2.28c-4.3,1.68-8.54,3.57-12.77,5.41,1.42.29,2.81,0,4.23.31,1.68.32,2.75,1.25,4.47,1.19,3.68-.14,8.55-3.22,11.92-4.62m19-74.95c.63-1.45,17,6.56,18.87,7.81,1,.68,6.26,4.87,5.92.05-.19-2.74-6.53-6.07-8.54-7.21a48.14,48.14,0,0,0-16.55-6.23c-1.15-.17-9.84-1.39-6.94,2.78,1,1.43,5.5,1.95,7.24,2.8m-38,209.28a105,105,0,0,0,9,6c1.38.84,3.42,2.75,5.14,2.72,1.4,0,2.25-2,3.23-3.23a59.39,59.39,0,0,1,12.16-11.32c-1.52-1.66-11.7,2.26-14.11,2.66s-4.69.82-7.08,1.4-6.49.57-8.39,1.77m65.48-31.47c5.11-1.18,10.3-4.05,14.82-6.65a63,63,0,0,0,14.18-10.59c-2-.29-7.51,5.1-6.19-1.71.67-3.48,6.11-5.94,8.23-8.87-3.26-2.81-9.11,8.91-12.72,5.06s4.92-12.37,6.78-15.26c-2.06-2.06-19.18,13-21.6,14.83-1.51,1.17-4.79,2.48-5.82,4a14.2,14.2,0,0,0-1.27,5c0,2,1.68,4.67,2.26,6.62a27.39,27.39,0,0,1,1.33,7.6M1491,542.3c-2.91-6.52,1.77-8.18,6-12.26a62.82,62.82,0,0,0,9.17-10.88c6.3-9.76,12-18.86,16.35-29.66-3.1.72-5.86,5.3-7.8,7.61-2.61,3.11-5,6.44-7.82,9.4-5.24,5.54-10.49,11.52-16.64,16-2.79,2-5.29,4.44-8.38,6.16-1.41.78-3.88,1.16-5,2.26s-.3,2-.9,3.38-2.44,2.7-3.37,4c-1.22,1.71-2.38,3.43-3.69,5.07a13.39,13.39,0,0,0-2.59,4.68c-.73,2.07.15,2.48-2.1,4.08l9.24,6.49,3.12,2.2,1-1.21c1.11-.72,2.41-2.77,3.18-3.85,3.21-4.53,6.72-9,10.25-13.45M1169.55,453c-14.65,23.34,14.8,51.35,34.61,60.21,2.74,1.23,5.38,2.64,8.1,3.92,3,1.38,5.77,1.79,8.82,2.73,2.42.75,3.22,2.9,5.45,3.89,3.72,1.67,4.07-1.31,5-4.4,3.85-13.08,13.22-24.57,22.64-34.24-3.05-1.84-6.05-3.77-9-5.71-2.56-1.66-6.19-5.61-9.14-6.37-2.19-.56-5.93.65-8.24,1.05a95.26,95.26,0,0,1-11.57,1.31c-6.83.34-14.52,1.13-21.29-.05-2-.33-7.45-.5-8.61-2-2.2-2.82,1.87-4,4.27-4.35,14.26-2.21,28.78-1.45,43.11-3.77,7.37-1.2,14.73-2.71,22.14-3.85,6.38-1,13-1.68,19.29-3.21a113.72,113.72,0,0,0,24.42-8.78c1.52-.78,4.59-1.77,5.79-3.1,1.06-1.17.7.14.85-1.5.12-1.18-1-3-1.35-4.24a112.86,112.86,0,0,1-3.25-13.71c-11.39,2.4-22.59,6.52-33.89,9.26s-23.78,3.82-35.45,4.32c-5,.21-10.48-.52-15.28.9a30.19,30.19,0,0,1-6.18,1.53c-.81,1-1.43,1.11-1.86.31a1.55,1.55,0,0,0-1.27-.77,19.68,19.68,0,0,0-3.82.49,172.65,172.65,0,0,0-18.2,4.5c-2.84.83-5.75,1.62-8.52,2.66a18,18,0,0,0-4.14,2.07c-1.56,1.09-1.48,2.26-3.38.88m245.89-106.73c2.42.52,4.89-.35,7.4.23,4,.91,6.48,4.62,8.2,8.06,3.38,6.79.8,13.65-2.81,19.78a39.24,39.24,0,0,1-6.27,8c-2.16,2.1-5.6,3.81-7.31,6.29-2.81,4.09,1.44,3,4,2.48a33.4,33.4,0,0,0,9.25-3.05c13.06-6.72,24.14-17.48,29.88-31.23,2.8-6.71,4.33-14.91.6-21.59-3.41-6.11-10.75-9.35-17.52-9.7a48.14,48.14,0,0,0-20.9,4.06c-1.91.79-3.69,1.71-5.52,2.65-2.4,1.24-3.65,1-3.65,3.72a43.7,43.7,0,0,0,1,6.19c.57,3.71-.07,4.51,3.7,4.09m-4.2,61.15-.66.74c3.35.83,7.09-1.52,10.27-2.4a62.72,62.72,0,0,0,11.76-5c6.71-3.44,13.6-7.45,19.12-12.62,12.36-11.6,24.56-27,25.36-44.69.87-19.06-13.88-29.42-31.61-30.42-8-.45-15.61,1.63-23.27,3.76a82.46,82.46,0,0,0-10.93,4.37c-1.9.82-3.45.66-4,2.67-.39,1.5,1.56,5.48,2,7,10.51-7.15,21.39-12.63,34.66-10.45,15.79,2.6,22.08,19.32,19.17,33.54-2.87,13.95-11.58,26.18-23.19,34.29a70.47,70.47,0,0,1-16.19,8.77c-3,1.12-5.27,2.21-8.47,2.72-2.27.36-2,0-2.9,1.84-.79,1.56-.82,4.16-1.15,5.89M1288.06,580a52.62,52.62,0,0,1-2.78,7.19c-.38.84-2.09,3.39-2.08,4.43,0,1.7-.23.56,1,1.7s3.08,1.49,4.66,2.08c1,.37,4.34,2.86,5,2.71,1.19-.26,1.5-2,2.83-2.4,1.81-.59,4,.67,5.44,1.7,3.73,2.74,5.76,7.27,9.3,10.24,6.29,5.27,14.24,9.08,21.94,11.54,4.17,1.33,8.37,3,12.78,2.88,3.48-.12,7.78.82,10.3-2.38-15.16-7.63-38.56-17.93-41.21-37.6-4.08,2.43-9.5-.4-13.58-1.67-4.49-1.39-8.61-2.1-12.38-5a19.45,19.45,0,0,0-1.26,4.61M1168.87,437.59a23.28,23.28,0,0,0,21.19-5.27,20.54,20.54,0,0,0,4-4.16c.23-.42.47-.83.71-1.25,1-1.08.77-1.73-.6-1.93-.55-1.2-2.41-1.93-1.48-3.72.7-1.34,2.23-1.06,3.65-1.24a12.83,12.83,0,0,0-1.47-3.06c-2.9,1.72-8.23,5.17-8.94-.26-.34-2.6,1.58-4.64,1.69-7.06a10.32,10.32,0,0,0-1.29-4.46c-3.18-3.86-8.92-3.68-13.32-2.66-3,.7-3.76,1.17-4.79,4s-2.06,5.68-3.16,8.5c1.85-.54,2.53-2.36,3.89-3.49l.78,2.47a1.42,1.42,0,0,1,1.6.38c.55,1.4-.32,3.13-.83,4.38,2.74.29,3.28,3.52.32,4.19s-3.63-3-3.29-5.23c-1.29,1-2.23.16-3.09.65s-1.42,1.78-2,3.2c-.91,2.32-2.7,5.58-2.17,8.2.78,3.89,5.19,6.71,8.61,7.86m241.88-71.53c-3.19,3-8.36,6.67-10.09,10.69,3.07-1.06,10.44-7.67,10.7-1.18.15,3.73-5.11,7.08-6.88,10.3,4.63-.56,8.61-4.41,12-7.32,4.33-3.71,9-8.8,11-14.22a8.08,8.08,0,0,0-5.25-10.61,22.62,22.62,0,0,0-7.32-.74,14.52,14.52,0,0,0-3.78.42c-1.32.47-1.81,2.09-2.64.49l-6.09,7.45c1.57-.24,5-1.9,6.57-1.35,2.27.81,2.07,4.31,1.75,6.07M1190.44,251.27a71,71,0,0,0-20.32-.27c-1.65.21-8.51.74-7.67,3.67.55,1.94,5.92.43,7.48.32a181.94,181.94,0,0,1,20.09-.15c1.62,0,6.93,1.14,7.61-.86.84-2.43-5.34-2.35-7.19-2.71m121,321.46a43.89,43.89,0,0,1-10.48-2.27c-2.92-1-5.72-2.8-8.69-3.4-.64,3.19-.86,3.17,2.36,4.52,2.25.95,4.58,1.69,6.88,2.5,4.06,1.41,8.36,4,12.76,4,0-.57.43-4.37.07-4.82a13.59,13.59,0,0,0-2.9-.51m-10.19-247.16c.86.83,2.64,3.81,3.81,4.09.17-3-2.07-8.74-6.18-7.68-1,.26-3.37,2.08-2.69,3.22.36.61,3.84.13,5.06.37m-39.81,19.05c.13-.5.27-1,.41-1.51-1.53.54-3.31.58-4.54,1.68,1.06.76,2.13,1.51,3.2,2.26l.93-2.43m92.58,99.16c6,3.57,11.37,7.8,15.12,13.9,3.23,5.28,3.6,13.52,3.44,19.55-.4,14.95-7.89,27.37-13.83,40.55-3,6.69-6.76,13-10.38,19.33-3.16,5.57-6.09,11.48-9.94,16.6-3.26,4.35-7.14,8.5-10.16,13.08-1.63,2.47-5.23,11.32-8.78,7.61-1.72,2.72-1.94,2.41-1.15,4.7.58,1.65,3.12,4.3,4.28,5.79a67.6,67.6,0,0,0,11.16,10.68c7.17,5.72,15.12,10.52,22.59,15.93,3.31,2.39,6.86,5.15,5.09,9.74a11.91,11.91,0,0,1-8.35,7.47,44.35,44.35,0,0,1-12.63,1.09c-2.27-.13-2.6-1.15-4.33-1.83-1.93-.75-4.41-.54-6.47-1-9.25-1.94-16.91-5.9-23.32-12.77-2.29-2.46-5.19-8.46-8.7-9.16-1.79-.36-1.63.8-3.33,1.13-2.1.39-5.16-1.76-7-2.49-3.92-1.56-7.91-3.15-9.92-7.2-2.17-4.38-.19-8.86,1.91-12.82,2.37-4.46,5.73-8.8,7.71-13.41a14.32,14.32,0,0,0,1.13-4.5c0-1.93-1.67-3.41-1.32-5.42.1-.62,1.14-1.24,1.41-1.84a30,30,0,0,0,1.27-4.14c.75-2.46,1.8-4.74,2.7-7.14,2-5.46,4.8-10.14,7.6-15.23a46.33,46.33,0,0,1,9.2-12.47c2.14-2,9.39-9.34,7.16-12.31a75.1,75.1,0,0,1-17.52,16c-5.24,3.57-10.69,8.7-16.77,10.77-6.68,2.29-14.4,2.87-21.38,3.39-3.32.24-6.32,1.66-9.78,1.34a34.54,34.54,0,0,1-10.83-3.09c-1-.44-3.58-2.58-4.51-2.66-1.38-.12-3.81,1.89-5.38,2-3.82.35-5.87-2.2-8.22-4.64-2.56-2.66-3.35-3.35-6.73-4.28-4.13-1.15-7.92-3.44-11.86-5.17-6.94-3.05-12.46-7.51-18.38-12.21a70.47,70.47,0,0,1-16.62-19.46c-6.52-10.94-13-39,2.44-45.22-7.83-2.71-14.51-7.7-13.66-17,.44-4.88,2.46-10,4.58-14.33,1-2,2-3.94,3.08-5.9a4.25,4.25,0,0,0,1.21-2.15c.51-1,.2-1.65-.92-1.87-1.63-2.9-2.79-5.41-2.51-9,.09-1.14.31-2.88,1.29-3.67a2.83,2.83,0,0,1,1.49-.5c1.23.32,1.7-.22,1.42-1.62,1-1.72.36-3.33,2.79-3.64.7.3,1.39.62,2.08.95.83.6,1.5.42,2-.55,2.31-.41,1.57-1.85,4.27-.19a13,13,0,0,1,4.09,4.09c1.82-.71-.57-7.83-.28-9.89.67-4.86,3.45-8.44,6.83-11.86,6.55-6.67,14.89-11.86,23-16.4,15.51-8.71,31.59-16.75,48.35-22.8a24.71,24.71,0,0,0-20-7.61c-7.13.49-13.28,2.72-20.1,4.39-6.31,1.54-12.65,1.43-13-6.31-.41-8.67,6.78-10.41,13.42-12.93-1.25-1.4-6.25-1.58-8.11-1.82a93.07,93.07,0,0,0-12.37-.37c-2,0-3.72-.43-5.68-.42-2.92,0-6,.06-9,.3a69.44,69.44,0,0,0-21.05,5c-5.72,2.4-10.18,6.51-15.13,10.13-5.64,4.13-11.08,8.22-18.31,8.7-3.39.22-7.32.25-9-3.08-1.58-3.09-1.06-6.34-.33-9.59,1.59-7.18,6.64-14.27,11.87-19.36,5.68-5.51,12.31-8,18.9-12-8.16-1-16.78,1.65-24.77,3.1-1.68.3-3.39.68-5.07.94s-2.82-.32-4.48-.36c-3.78-.09-7.22.82-10.28-2.35-5.79-6,2.83-14.07,8-16a131,131,0,0,1,22.16-6.29c-3-4.94,1.47-10.23,5.6-12.48,5.23-2.84,11.37-3.84,17.17-4.76A96.25,96.25,0,0,1,1173.9,243c4.87-.07,10.63-.5,15.33.59,4.41,1,8.5,1,13,1.81,3.76.64,7.49,1.48,11.25,2.13,10.12,1.76,20.08,4.46,29.77,7.15-3.23-24.34,46.68-7,57-1.86,9.41,4.69,20.18,10.11,27.25,18.2a102.75,102.75,0,0,1,8.25,11c3.69,5.6,5,12.24,6.27,18.78,6.83-1.8,13.44-3.93,20.55-4.08,6.76-.14,13.78-.76,20.51-.54,5.11.17,12.41,1.05,15.88,5.38,3.76,4.7,4.94,11.08,6.63,16.68,15.43-9.71,31.7-15.79,50.08-11.49,18,4.2,26.75,22.22,25.55,39.59-1.31,19.15-13.53,37-27.69,49.18-6.35,5.47-12.84,10.68-20.61,14.16a88.36,88.36,0,0,1-12,4.76,56.94,56.94,0,0,1-6.3,1.34,27.2,27.2,0,0,1-2.86.33c-2.72.11-2-.63-3.46,1.45-1.16,1.68-1.7,4.88-2.44,6.83-.84,2.24-1.54,4.54-2.56,6.71-1.76,3.76-3.54,7.42-5.52,11a113.58,113.58,0,0,1-13.46,19.51c2.94,2,7.41,3.08,10.76,4.19a79.11,79.11,0,0,1,10.79,4.76c7.3,3.71,13.85,6.92,20.55,11.63,7,4.89,12.76,11.27,19.31,16.73a214.75,214.75,0,0,1,17.33,16.66,19.42,19.42,0,0,1,3,4,20.28,20.28,0,0,0,2.5,3.41c.55.66,1.92,3.71,2.65,4,1.3.45,1.3-.6,2.63-1.78,2.78-2.48,6.29-4.12,9.07-6.67a89.86,89.86,0,0,1,7.1-6,87.72,87.72,0,0,0,15.39-14.76c2.39-2.89,4.84-5.61,7.34-8.28s6.64-6,10.35-5.08c0-1.61-.89-2.06,1-2.68,1.19-.39,3.06,1,3.76,1.79,1.84,2.08,1.3,5.28.68,7.64a77.92,77.92,0,0,1-7,17.39,181.16,181.16,0,0,1-11.81,18.3c-3.41,4.86-7.75,11.32-14.09,12.57,2.81,6.41,0,10.6-3.81,16-2.8,4-6.24,8-10.68,10.07-5,2.38-9.18-1.32-13.3-4.38-2.49-1.85-10.29-6.6-7.78-10.25-2-.7-3.06-2.49-4.88-3.34s-1.74,0-3.95-.14c-1.69-.09-3.85-2-5.29-2.89-2.41-1.39-4.81-2.81-7.21-4.22-6.76-4-13.41-7.85-20.34-11.32-12.9-6.46-26.3-11.34-39.23-17.39-2.59-1.22-5.17-2.4-7.9-3.51-.57-.22-3.57-1-3.82-1.7-.42-1.23,2.8-7,3.22-8.21a81.58,81.58,0,0,0,4.26-25.54c0-3.51-2-8.48-1.35-11.78.46-2.21,2.91-4.23,4.46-6a135.9,135.9,0,0,0,11-13.89c4.82-7.25,8.58-15.77,11.7-23.94a119,119,0,0,0,4.55-13.29c.83-3.37,1.27-7,2.46-10.38-1.92-.2-4.78.25-6.26-1.14-1.88-1.74-1.7-5.62-1-7.81-7.58-.19-6-7.09-4.41-12.43-13.24-2.66,7.66-18.94,10.63-22.74,1.36-1.75.9.42,1.07-2.67a19.46,19.46,0,0,0-.8-4.32c-.59-2.87-1.27-5.73-2-8.56a151.54,151.54,0,0,0-6-17.57,54.65,54.65,0,0,0-9.72,5.61c2.46-3.91,8.46-8.16,7.31-13.39-1.07-4.85-7.68-5.86-11.72-5.82a217.33,217.33,0,0,0-32.44,3.06c2.74,2.4,7.77,2,11.12,1.23a65.47,65.47,0,0,1,12.91-1.93c3.74-.06,8.4,1.14,6.39,5.77-1.62,3.75-6.2,6.75-9.32,9.17-6.86,5.34-14.84,8.93-22.69,12.55-8.44,3.88-16.71,8.29-25.22,12-15.38,6.71-31.52,12-47.22,18-8.16,3.11-17.1,5.14-25.64,6.95-9.38,2-18.47,4.32-28,5.47-5.31.63-10.51,1-15.77,1.87-3.3.55-9.11,1.81-10.45-2-2.71-7.85,14-14.1,19-17.58,2.26,3.3-13.66,10.71-13.37,14.91.23,3.3,4.34-.08,6.1-.61,2.86-.87,6-.95,8.95-2,6-2.16,13-4.62,15.55-11.05a1.53,1.53,0,0,1,.53-2.46,5.83,5.83,0,0,0,1.21-1.32,22.41,22.41,0,0,0,1.43-3.33c1.26-3.16.37-6.53,2.42-9.47-9.43,4.57-18.7,10-27.82,15.16-8.18,4.63-17,11.06-21.39,19.53a12.22,12.22,0,0,0-1.55,3.51c-.36,2.41,0,1.94,1.75,3.1s4.58,1.64,6.63,2.14c1.17.28,6.68.09,5.12,2.46-.9,1.37-4.54.59-5.87.46-3.35-.31-5.06-1-4.22,2.85.38,1.73,1.58,3.09,2.44,4.54,2.39,4.05,3,9.64,4.62,14.16a161.34,161.34,0,0,0,6.37,15c1,2,2.09,5.7,3.69,7.32s-.52,1,2.43,1.12c1.29,0,2.58-.55,3.83-.6,7.48-.31,15.2-.8,23-1.46,10-.86,20.34-1.22,30.13-3.36,8.77-1.93,17.62-4.54,26.48-6.49,2.59-.57,5.1-.79,7.34-2.35,2.69-1.87,5.15-4.54,7.71-6.63,4.35-3.55,8.44-7.22,13-10.49,3.4-2.44,9.49-7,13.68-7.41,8-.77,1.66,9.88.11,12.58,1.68.75,3.07-1.33,5-.26,2.33,1.28,1.92,4.63,1.82,6.76,0,.57-1,1.45-.85,2,0,.18,1.47,1.47,1.69,2,.82,1.84.2,3.76-.58,5.41-4,8.57-13.25,13.57-20.4,19.05,2.7,0,4.92-1.06,7.53-1.31a33.82,33.82,0,0,1,7.12.54c2.47.28,5-.16,7.49.29s5,1.72,7.5,2.53" transform="translate(-701)"/><path class="cls-1" d="M1095.2,307.63c-1.62.65-2.21,1.49-2.69,3.65-.2.88-.8,4.2.46,4.32s2-6.83,2.23-8m-8.49,3.91c2.06-6.8,6-13.34,12.84-16.46,1.69-.78,3.35-.4,5.1-.75,1-.21,3-1.79,4-1.35,3.9,1.64-1.87,6.1-2.84,7.38-3,4-3.64,7.86-4.53,12.62-.67,3.62-1.14,9.85-3.61,12.75-2.64,3.08-6.39,0-8.32-2.54-2.44-3.19-3.85-7.77-2.66-11.65" transform="translate(-701)"/><path class="cls-1" d="M1153.91,346.3c-.78,3.87,2.89,1.88,3.33-.89.64-4.09-2.87-2.2-3.33.89m21-18c-4.05,2.4-7.05,3.6-8.67,8.22-1.22,3.5-1.43,7.17-2.14,10.8-1.18,6.08-7.37,11.49-11.25,3.46-2.84-5.85.14-13.56,4.31-18a21.93,21.93,0,0,1,8.12-5.65c2.3-.85,8.54-2.17,9.63,1.21" transform="translate(-701)"/><path class="cls-1" d="M1187.14,571.31c-.59.87-2.29,4.53-.21,4,1.84-.43,1.26-3.2.21-4m-7.7-13.9c0-1.5,1.93-10.55,4.29-9.37,1.86.93,1.25,5.64,1.73,7.41,1.77,6.62,7.85,11.73,9,18.42,1.25,7.46-6.75,6.08-10.41,2.43-4.33-4.33-5.59-13-4.57-18.89" transform="translate(-701)"/><path class="cls-1" d="M1101.76,360c1.38-1.25,1.64-2,1.28-3.43-1,.71-1.07,2-1.28,3.43m-.53,6.71c-5.78-.5-4-11-2.29-14.36a27.14,27.14,0,0,1,5.78-7.4c.44-.4,4.55-4,5.19-3.84,2.47.46,1.24,3.1.77,4.08a29.2,29.2,0,0,0-2.87,9.4c-.53,3.92-.54,13.46-6.58,12.12" transform="translate(-701)"/><path class="cls-1" d="M1376,327.87c-9.44,5.16-18.59,11-28.56,15.13-4.88,2-9.89,3.71-14.78,5.8a46,46,0,0,1-7.63,2.58c-2.34.55-3.76.39-1.52-1.57,1.5-1.31,4.37-1.85,6.21-2.63,2.83-1.19,5.56-2.6,8.48-3.58,5.15-1.72,10.17-2.94,15.08-5.34,4.35-2.12,8.82-4.16,13-6.5,1.8-1,8.14-6,9.68-3.89" transform="translate(-701)"/><path class="cls-1" d="M1371.24,352.38c3,3.84-7.79,10.53-10.25,12.05a90.65,90.65,0,0,1-8.11,4.26c-1,.47-6.38,3.8-7.47,3.23-2.15-1.14,1.4-3.29,2.33-3.86,3-1.82,6-3.56,9-5.46,2.66-1.71,5.47-3.22,8.07-5,2.11-1.45,4.19-4.21,6.46-5.2" transform="translate(-701)"/><path class="cls-1" d="M1151,556.58c1.15-1.37,2.31.64,1.39,1.25s-1.34-.93-1.39-1.25m5.52-2.05c0-2.34-.78-3.81-3.85-2.42-2.1,1-6.56,4-6.62,6.11-.08,2.78,3.83,2.77,6,1.75s3.69-3.5,4.42-5.44" transform="translate(-701)"/><path class="cls-1" d="M1145,509.33c-3.66-1-6.26-4.52-7.16-8.18-.77-3.07-1.12-7.86,3.25-5.45,2.85,1.58,12.2,15.76,3.91,13.63" transform="translate(-701)"/><path class="cls-1" d="M1148.74,484c-3,.08-5.47-2.38-6.81-4.86-.83-1.55-2.46-6.72-.78-8.38,2.33-2.32,4,3.6,4.69,4.85,1.13,2,5.29,6.11,2.9,8.39" transform="translate(-701)"/><path class="cls-1" d="M1131.88,401.81c-2-1.5-3.88-3.17-4.28-5.85-.26-1.71.21-6.57,2.76-6,3,.61,7.6,12.6,1.52,11.88" transform="translate(-701)"/><path class="cls-1" d="M1126,349.06c3,.55,3.4,2.36,3.34,4.83,0,1.68.24,7.46-1.42,8.3-2.37,1.2-4.89-3.14-5.26-4.72-.76-3.26,1.71-5.82,3.34-8.41" transform="translate(-701)"/><path class="cls-1" d="M1144.79,524.44c1.33,1,4.37,3.12,2.64,5.16s-5.18-1-6.4-2.31c-.51-.56-3.74-4.19-3.39-5.13.75-2,5.46,1.75,7.15,2.28" transform="translate(-701)"/><path class="cls-1" d="M1078.13,355c.5,2.71-.09,11.57-4.44,5.85a4.71,4.71,0,0,1-.27-5.41c1.37-2.67,2.42-1.87,4.71-.44" transform="translate(-701)"/><path class="cls-1" d="M1364.46,378.91c-.69-2.62,2.51-3.58,4.36-4.82,1.21-.8,6.54-5.41,7.86-4.82,2.73,1.2-10.6,8.86-12.22,9.64" transform="translate(-701)"/><path class="cls-1" d="M1115.78,484.93c2.84.11,2.87,3.3,4.38,5,.65.73,3.16,1.75,2.39,2.86-2,2.92-7.33-5.73-6.77-7.85" transform="translate(-701)"/><path class="cls-1" d="M1132.53,437.29c2-.41,6.66,4.94,4.73,6.47-2.9,2.28-4.9-4.93-4.73-6.47" transform="translate(-701)"/><path class="cls-1" d="M1160.12,506.91c-1.41-.14-6.87-3.14-4.22-5.16,1.86-1.42,5,3.7,4.22,5.16" transform="translate(-701)"/><path class="cls-1" d="M1139.69,447.17c-1.48.28-6.2-1.84-4.21-3.68s4.56,2,4.21,3.68" transform="translate(-701)"/><path class="cls-1" d="M1131.32,498.54a2.72,2.72,0,0,1,2.54,3c-2.06-.11-2.58-.71-2.54-3" transform="translate(-701)"/><path class="cls-1" d="M1387.33,302.71l2,.41-2-.41" transform="translate(-701)"/><path class="cls-1" d="M1348.49,441.49l-3-.6,3,.6" transform="translate(-701)"/><path class="cls-1" d="M1243.46,248.91c-.25,1-.49,2-.74,3,.24-1,.49-2,.74-3" transform="translate(-701)"/><path class="cls-1" d="M1522.54,483.71q.15,1.79-1.53.27l1.53-.27" transform="translate(-701)"/><path class="cls-1" d="M1476.12,566.24l1.52.31-1.52-.31" transform="translate(-701)"/><path class="cls-1" d="M1396.3,465.55a1.8,1.8,0,0,1-2.52-.54l2.52.54" transform="translate(-701)"/><path class="cls-1" d="M1394.63,375.48l-.57,2.52.57-2.52" transform="translate(-701)"/><path class="cls-1" d="M1454,306.17l-2.53-.51a4.22,4.22,0,0,1,2.53.51" transform="translate(-701)"/><path class="cls-1" d="M1208.65,246.34l-2.56-.36,2.56.36" transform="translate(-701)"/><path class="cls-1" d="M1229.36,250.65l-2-.58,2,.58" transform="translate(-701)"/><path class="cls-1" d="M1240.33,253.68a2.26,2.26,0,0,1-2-.4l2,.4" transform="translate(-701)"/><path class="cls-1" d="M1179.85,243h0" transform="translate(-701)"/><path class="cls-1" d="M1371.13,495.49c-.12.5-.25,1-.37,1.51.13-.51.25-1,.37-1.51" transform="translate(-701)"/><path class="cls-1" d="M1100.51,398.68c-.06.34-.11.68-.17,1,.06-.34.11-.68.17-1" transform="translate(-701)"/><path class="cls-1" d="M1526.14,482l-2.53-.49a2.1,2.1,0,0,1,2.53.49" transform="translate(-701)"/><path class="cls-1" d="M1353.82,443.79l-2-.74,2,.74" transform="translate(-701)"/><path class="cls-1" d="M1145.08,524.42l-2.43-1Z" transform="translate(-701)"/><path class="cls-1" d="M1344.42,413.31c.09-.51.18-1,.26-1.52-.08.51-.17,1-.26,1.52" transform="translate(-701)"/><path class="cls-1" d="M1211.15,247l-1.49-.49,1.49.49" transform="translate(-701)"/><path class="cls-1" d="M1296.63,251.11l-1.43-.76,1.43.76" transform="translate(-701)"/><path class="cls-1" d="M1288.51,604.42l1,.27-1-.27" transform="translate(-701)"/><path class="cls-1" d="M1110.67,286.24l1.51.35-1.51-.35" transform="translate(-701)"/><path class="cls-1" d="M1459.46,307.78l-2.49-.69,2.49.69" transform="translate(-701)"/><path class="cls-1" d="M1193.3,252l-3.54-.7,3.54.7" transform="translate(-701)"/><path class="cls-1" d="M1411.47,404.11c-.15.85-.31,1.7-.46,2.54.16-.85.31-1.69.46-2.54" transform="translate(-701)"/><path class="cls-1" d="M1313.25,572.85l-2-.44,2,.44" transform="translate(-701)"/><path class="cls-1" d="M1438.76,319.17l3.11.27c-1.15.66-2.08-.12-3.11-.27" transform="translate(-701)"/><path class="cls-1" d="M1307.63,572l-1.51-.36,1.51.36" transform="translate(-701)"/><path class="cls-1" d="M1288.37,577.33c-.15.85-.29,1.69-.43,2.54.14-.85.28-1.7.43-2.54" transform="translate(-701)"/><path class="cls-1" d="M1414.84,346.69l2.06.21c-.71.36-1.38-.07-2.06-.21" transform="translate(-701)"/><path class="cls-1" d="M1166.79,437l2,.78-2-.78" transform="translate(-701)"/><path class="cls-1" d="M1298.68,325a1.87,1.87,0,0,1,2.53.5l-2.53-.5" transform="translate(-701)"/><path class="cls-1" d="M1261.91,344.17l.27-1-.27,1" transform="translate(-701)"/><path class="cls-1" d="M1411.09,364l-.39,2,.39-2" transform="translate(-701)"/><path class="cls-1" d="M1166.69,425.11c1,.59,3,2.18,4.36,2.29,1.06.08,2.17-1,3.17-.8,2.69.54,1.57,3.55-.07,5-4.42,3.81-11.29-2.66-7.46-6.45" transform="translate(-701)"/><path class="cls-1" d="M1180.91,411.1c3.48,1.68,0,9.38-3.16,9.32-3.76-.08-3.08-6.76-1.88-9,1.64,1.48-.31,5.21,2.26,4.59,1.64-.4,2.06-3.66,2.78-4.92" transform="translate(-701)"/></g></svg>